<?xml version="1.0" encoding="utf-8"?>
<!-- Generator: Adobe Illustrator 25.2.1, SVG Export Plug-In . SVG Version: 6.00 Build 0)  -->
<svg version="1.1" id="圖層_1" xmlns="http://www.w3.org/2000/svg" xmlns:xlink="http://www.w3.org/1999/xlink" x="0px" y="0px"
	 viewBox="0 0 50 50" style="enable-background:new 0 0 50 50;" xml:space="preserve">
<style type="text/css">
	.st0{fill:#743079;}
	.st1{fill:#CA0813;}
	.st2{fill:#198420;}
	.st3{fill:#E67820;}
	.st4{fill:#0386F4;}
</style>
<g>
	<path class="st0" d="M24.64,48.65c-0.64-0.2-1.05-0.65-1.42-1.19c-1.33-2-2.68-3.98-4.04-5.96c-0.13-0.19-0.36-0.37-0.58-0.45
		c-7.76-2.94-12.35-8.49-13.4-16.73C4.07,15.49,9.32,6.93,17.64,3.65c10.09-3.98,21.43,0.74,25.71,10.71
		c4.55,10.59-0.99,22.99-11.91,26.69c-0.25,0.08-0.5,0.28-0.65,0.49c-1.36,1.98-2.71,3.96-4.05,5.96c-0.36,0.53-0.77,0.96-1.39,1.15
		C25.12,48.65,24.88,48.65,24.64,48.65z M25,43.61c1.09-1.6,2.14-3.13,3.16-4.68c0.4-0.6,0.9-0.96,1.59-1.17
		c7.96-2.37,12.89-10.58,11.26-18.73C39.27,10.3,30.93,4.59,22.16,6.12c-8.5,1.48-14.51,9.48-13.34,18
		c0.92,6.73,4.74,11.24,11.13,13.53c0.91,0.32,1.58,0.76,2.09,1.58C22.98,40.7,23.98,42.11,25,43.61z"/>
	<path class="st0" d="M27,24.91c0,1.54-0.01,3.08,0.01,4.62c0.01,0.5-0.19,0.85-0.6,1.08c-0.91,0.51-1.84,0.53-2.76,0.03
		c-0.41-0.23-0.62-0.58-0.62-1.07c0.01-3.13,0.01-6.25,0-9.38c0-0.56,0.25-0.93,0.74-1.13c0.85-0.35,1.71-0.35,2.55,0.04
		c0.47,0.21,0.7,0.57,0.7,1.11C26.99,21.77,27,23.34,27,24.91z"/>
	<path class="st0" d="M25.02,16.46c-1.08,0.01-2.05-0.78-2.11-1.72c-0.07-1.11,1-2.05,2.23-1.94c0.18,0.02,0.36,0.05,0.53,0.1
		c0.91,0.28,1.51,1.11,1.39,1.92C26.93,15.73,26.04,16.44,25.02,16.46z"/>
</g>
</svg>
