<?xml version="1.0" encoding="utf-8"?>
<!-- Generator: Adobe Illustrator 25.2.1, SVG Export Plug-In . SVG Version: 6.00 Build 0)  -->
<svg version="1.1" id="圖層_1" xmlns="http://www.w3.org/2000/svg" xmlns:xlink="http://www.w3.org/1999/xlink" x="0px" y="0px"
	 viewBox="0 0 50 50" style="enable-background:new 0 0 50 50;" xml:space="preserve">
<style type="text/css">
	.st0{fill:#743079;}
	.st1{fill:#CA0813;}
	.st2{fill:#198420;}
	.st3{fill:#E67820;}
	.st4{fill:#0386F4;}
</style>
<g>
	<path class="st2" d="M33.1,46.39c-8.32,0-16.64,0-24.96,0c-0.04-0.02-0.07-0.06-0.11-0.06c-1.99-0.25-3.99-2.09-3.98-4.85
		C4.08,30.24,4.06,19,4.06,7.77c0-2.85,2.02-4.86,4.86-4.86c6.07,0,12.14,0,18.21-0.01c0.55,0,0.98,0.16,1.36,0.55
		c2.7,2.72,5.42,5.43,8.13,8.13c0.39,0.39,0.56,0.81,0.55,1.36c-0.02,1.85,0,3.71-0.01,5.56c0,0.29,0.07,0.44,0.35,0.57
		c4.9,2.37,6.55,8.51,3.51,13.03c-0.08,0.11-0.15,0.23-0.24,0.38c0.14,0.12,0.26,0.21,0.37,0.32c1.9,1.9,3.81,3.8,5.7,5.71
		c0.26,0.26,0.46,0.6,0.68,0.9c0,0.2,0,0.4,0,0.59c-0.61,1.17-1.47,1.3-2.41,0.36c-1.93-1.93-3.86-3.86-5.78-5.79
		c-0.11-0.11-0.17-0.26-0.23-0.35c-0.6,0.35-1.08,0.66-1.58,0.9c-0.27,0.13-0.35,0.28-0.35,0.57c0.01,2.04,0.02,4.07,0,6.11
		c-0.03,2-1.36,3.76-3.26,4.35C33.64,46.25,33.37,46.31,33.1,46.39z M34.63,36c-5.45,0.46-9.46-3.55-9.85-8.04
		c-0.21-2.44,0.42-4.64,2-6.52c2.03-2.42,4.69-3.44,7.82-3.22c0-1.44,0-2.85,0-4.27c-2.35,0-4.67,0-6.99,0
		c-0.97,0-1.47-0.5-1.47-1.46c0-2.18,0-4.36,0-6.54c0-0.15,0-0.3,0-0.49c-0.19,0-0.35,0-0.5,0c-5.55,0-11.09,0-16.64,0
		c-1.54,0-2.39,0.84-2.39,2.38c0,11.21,0,22.42,0,33.63c0,1.52,0.85,2.37,2.36,2.38c3.11,0,6.23,0,9.34,0c4.66,0,9.31,0,13.97,0
		c1.5,0,2.36-0.86,2.36-2.38c0-1.67,0-3.34,0-5.01C34.63,36.31,34.63,36.17,34.63,36z M40.02,27.11c0-3.52-2.83-6.36-6.36-6.37
		c-3.51-0.01-6.36,2.84-6.37,6.36c0,3.5,2.84,6.37,6.32,6.37C37.16,33.48,40.01,30.65,40.02,27.11z M32.6,11.38
		c-1.29-1.29-2.62-2.62-3.88-3.88c0,1.22,0,2.55,0,3.88C30.07,11.38,31.39,11.38,32.6,11.38z"/>
	<path class="st2" d="M17.65,19.04c-2.38,0-4.75,0-7.13,0c-1.03,0-1.67-0.96-1.23-1.83c0.25-0.51,0.69-0.72,1.25-0.72
		c2.64,0,5.29,0,7.93,0c2.11,0,4.21-0.01,6.32,0c1.01,0,1.64,0.94,1.22,1.81c-0.26,0.53-0.7,0.74-1.28,0.74
		C22.37,19.04,20.01,19.04,17.65,19.04z"/>
	<path class="st2" d="M15.95,24.14c-1.78,0-3.56,0-5.34,0c-0.86,0-1.44-0.51-1.45-1.27c-0.01-0.76,0.58-1.28,1.43-1.28
		c3.58,0,7.15,0,10.73,0c0.85,0,1.43,0.53,1.43,1.29c-0.01,0.74-0.58,1.26-1.41,1.26C19.54,24.14,17.74,24.14,15.95,24.14z"/>
	<path class="st2" d="M15.93,29.23c-1.81,0-3.62,0.01-5.43,0c-0.98,0-1.62-0.92-1.23-1.78c0.22-0.49,0.63-0.76,1.17-0.77
		c3.67-0.01,7.35-0.01,11.02,0c0.72,0,1.27,0.57,1.28,1.26c0,0.71-0.55,1.28-1.3,1.28C19.6,29.24,17.77,29.23,15.93,29.23z"/>
	<path class="st2" d="M15.95,34.33c-1.77,0-3.53,0-5.3,0c-0.9,0-1.48-0.5-1.49-1.26c-0.01-0.77,0.58-1.28,1.47-1.28
		c3.58,0,7.15,0,10.73,0c1,0,1.64,0.86,1.29,1.74c-0.2,0.51-0.66,0.81-1.27,0.81C19.57,34.33,17.76,34.33,15.95,34.33z"/>
</g>
</svg>
