<?xml version="1.0" encoding="utf-8"?>
<!-- Generator: Adobe Illustrator 25.2.1, SVG Export Plug-In . SVG Version: 6.00 Build 0)  -->
<svg version="1.1" id="圖層_1" xmlns="http://www.w3.org/2000/svg" xmlns:xlink="http://www.w3.org/1999/xlink" x="0px" y="0px"
	 viewBox="0 0 1600 1200" style="enable-background:new 0 0 1600 1200;" xml:space="preserve">
<style type="text/css">
	.st0{fill:#0384F3;}
	.st1{fill:#FEFEFE;}
	.st2{fill:#088AE9;}
	.st3{fill:#22A2AD;}
	.st4{fill:#088AE8;}
	.st5{fill:#0789EA;}
	.st6{fill:#0588EF;}
	.st7{fill:#0B8EDE;}
	.st8{fill:#0588ED;}
	.st9{fill:#0486F1;}
	.st10{fill:#0E8FDB;}
	.st11{fill:#1F9FB4;}
	.st12{fill:#1596C9;}
	.st13{fill:#21A0B1;}
	.st14{fill:#0F91D7;}
	.st15{fill:#1897C7;}
	.st16{fill:#1192D4;}
	.st17{fill:#1293D1;}
	.st18{fill:#1B9BBC;}
	.st19{fill:#1495CD;}
	.st20{fill:#1B9BBE;}
	.st21{fill:#23A3AB;}
	.st22{fill:#0E8EDC;}
	.st23{fill:#0F90D8;}
	.st24{fill:#1898C4;}
	.st25{fill:#1D9DB8;}
	.st26{fill:#1999C2;}
	.st27{fill:#199AC0;}
	.st28{fill:#1595CC;}
	.st29{fill:#0A8CE3;}
	.st30{fill:#54ACA2;}
	.st31{fill:#84DBD1;}
	.st32{fill:#95D6C7;}
	.st33{fill:#9DBDD4;}
	.st34{fill:#92D2D0;}
	.st35{fill:#CDDEE8;}
	.st36{fill:#B0E1D5;}
	.st37{fill:#E9F8FC;}
	.st38{fill:#DCF4FA;}
	.st39{fill:#E2F4FB;}
	.st40{fill:#E0F7FE;}
	.st41{fill:#EEF6FB;}
	.st42{fill:#EAF9FC;}
	.st43{fill:#DCF6FC;}
	.st44{fill:#DDF1FA;}
	.st45{fill:#C8ECF5;}
	.st46{fill:#ACE4FD;}
	.st47{fill:#EAEFF7;}
	.st48{fill:#DCF7FA;}
	.st49{fill:#E1F5FB;}
	.st50{fill:#E5F2FA;}
	.st51{fill:#E7F4FD;}
	.st52{fill:#CEE8F7;}
	.st53{fill:#D0E8F7;}
	.st54{fill:#EAF9FD;}
	.st55{fill:#D3F4FA;}
	.st56{fill:#C3F2FA;}
	.st57{fill:#DFF1F7;}
	.st58{fill:#ADDEF6;}
	.st59{fill:#BDF1FC;}
	.st60{fill:#D2F1FA;}
	.st61{fill:#CAECF6;}
	.st62{fill:#3975E0;}
	.st63{fill:#B9E1F3;}
	.st64{fill:#D9F8FC;}
	.st65{fill:#7CA7CC;}
	.st66{fill:#2E7ABA;}
	.st67{fill:#C6E7F3;}
	.st68{fill:#CBEDF8;}
	.st69{fill:#AFF0F9;}
	.st70{fill:#BAE9F4;}
	.st71{fill:#B1F6FE;}
	.st72{fill:#AAECFE;}
	.st73{fill:#A7F4FE;}
	.st74{fill:#C4E9F7;}
	.st75{fill:#BFF0FA;}
	.st76{fill:#B8E4F6;}
	.st77{fill:#3C82C8;}
	.st78{fill:#BEFBFD;}
	.st79{fill:#CAF4FA;}
	.st80{fill:#C7EBF8;}
	.st81{fill:#D1FCFE;}
	.st82{fill:#2F7ABB;}
	.st83{fill:#B3D6EF;}
	.st84{fill:#A3DDF1;}
	.st85{fill:#287FBB;}
	.st86{fill:#C6F6FD;}
	.st87{fill:#B2F4FD;}
	.st88{fill:#64DBFE;}
	.st89{fill:#0F86CE;}
	.st90{fill:#3677B3;}
	.st91{fill:#B7F8FE;}
	.st92{fill:#B2F6FE;}
	.st93{fill:#99DEFE;}
	.st94{fill:#287CCB;}
	.st95{fill:#B3D0E4;}
	.st96{fill:#A8EFFE;}
	.st97{fill:#AAD7F0;}
	.st98{fill:#BFF5FE;}
	.st99{fill:#377FBB;}
	.st100{fill:#457CBC;}
	.st101{fill:#79A9D4;}
	.st102{fill:#B6CBE3;}
	.st103{fill:#2E79BE;}
	.st104{fill:#9EE4FE;}
	.st105{fill:#3A77AA;}
	.st106{fill:#E5F6F9;}
	.st107{fill:#2B79C6;}
	.st108{fill:#2E7AB7;}
	.st109{fill:#4E89BA;}
	.st110{fill:#367CC5;}
	.st111{fill:#B2FEFE;}
	.st112{fill:#3978AA;}
	.st113{fill:#B0E7F3;}
	.st114{fill:#3279B7;}
	.st115{fill:#3379B5;}
	.st116{fill:#3078BD;}
	.st117{fill:#1E80C5;}
	.st118{fill:#4587BB;}
	.st119{fill:#3578B2;}
	.st120{fill:#4173AA;}
	.st121{fill:#6E97BF;}
	.st122{fill:#9ED2EC;}
	.st123{fill:#377CB7;}
	.st124{fill:#3A77C7;}
	.st125{fill:#ADF6FE;}
	.st126{fill:#3C76AC;}
	.st127{fill:#447EAE;}
	.st128{fill:#85A4C5;}
	.st129{fill:#1596CA;}
	.st130{fill:#098BE5;}
	.st131{fill:#0A8BE5;}
	.st132{fill:#0B8CE2;}
	.st133{fill:#0B8DE1;}
	.st134{fill:#1898C5;}
	.st135{fill:#1394CE;}
	.st136{fill:#7ECEBC;}
	.st137{fill:#41AE95;}
	.st138{fill:#37AA8F;}
	.st139{fill:#38A98F;}
	.st140{fill:#2D9CC0;}
	.st141{fill:#3CAB93;}
	.st142{fill:#2A99BB;}
	.st143{fill:#8CD6C7;}
	.st144{fill:#87D1C0;}
	.st145{fill:#82D0BE;}
	.st146{fill:#81CFBD;}
	.st147{fill:#80CEBC;}
	.st148{fill:#7FCFBC;}
	.st149{fill:#39A98E;}
	.st150{fill:#34AB90;}
	.st151{fill:#7ECFBB;}
	.st152{fill:#32AC90;}
	.st153{fill:#35AB90;}
	.st154{fill:#7ECFBC;}
	.st155{fill:#7BCBCB;}
	.st156{fill:#92D7CB;}
	.st157{fill:#7BCBCC;}
	.st158{fill:#7BCCCC;}
	.st159{fill:#91D7C9;}
	.st160{fill:#7BCDBA;}
	.st161{fill:#2C9DBB;}
	.st162{fill:#32AC8F;}
	.st163{fill:#31A1C2;}
	.st164{fill:#7DCEBB;}
	.st165{fill:#39A890;}
	.st166{fill:#7ECDC0;}
	.st167{fill:#2AAA99;}
	.st168{fill:#93D8C7;}
	.st169{fill:#88D3C1;}
	.st170{fill:#2BAA98;}
	.st171{fill:#32A895;}
	.st172{fill:#7DCDC0;}
	.st173{fill:#81D1BE;}
	.st174{fill:#2BAB96;}
	.st175{fill:#31A994;}
	.st176{fill:#92D6C7;}
	.st177{fill:#7DCDBA;}
	.st178{fill:#7CCCCC;}
	.st179{fill:#7BCBCF;}
	.st180{fill:#7ACACF;}
	.st181{fill:#84CFBF;}
	.st182{fill:#32A995;}
	.st183{fill:#95D5C5;}
	.st184{fill:#7DCDBF;}
	.st185{fill:#90D7C6;}
	.st186{fill:#30AD90;}
	.st187{fill:#8BD4C3;}
	.st188{fill:#7BCCBC;}
	.st189{fill:#30AE90;}
	.st190{fill:#33A993;}
	.st191{fill:#7ECEBF;}
	.st192{fill:#82D1C0;}
	.st193{fill:#35AA94;}
	.st194{fill:#8AD4C3;}
	.st195{fill:#93D5C5;}
	.st196{fill:#44B299;}
	.st197{fill:#39A891;}
	.st198{fill:#35AB92;}
	.st199{fill:#7CCCBF;}
	.st200{fill:#83D1C1;}
	.st201{fill:#86D5D7;}
	.st202{fill:#84D1BF;}
	.st203{fill:#7CCBCE;}
	.st204{fill:#62CAB2;}
	.st205{fill:#8CD6D0;}
	.st206{fill:#92D5C5;}
	.st207{fill:#7BCBCE;}
	.st208{fill:#2FAE8F;}
	.st209{fill:#33AF91;}
	.st210{fill:#38A990;}
	.st211{fill:#7AC6DB;}
	.st212{fill:#8CD6D2;}
	.st213{fill:#78CABD;}
	.st214{fill:#31AD8F;}
	.st215{fill:#3CAC92;}
	.st216{fill:#7CC8DD;}
	.st217{fill:#44A298;}
	.st218{fill:#7DC7DE;}
	.st219{fill:#87D1BF;}
	.st220{fill:#55AD99;}
	.st221{fill:#85DECA;}
	.st222{fill:#94D5C6;}
	.st223{fill:#7FC9DE;}
	.st224{fill:#89D2DD;}
	.st225{fill:#4CB99F;}
	.st226{fill:#87CCBF;}
	.st227{fill:#46A298;}
	.st228{fill:#80DDD2;}
	.st229{fill:#28A5A7;}
	.st230{fill:#4DA79B;}
	.st231{fill:#82DCD2;}
	.st232{fill:#3AA991;}
	.st233{fill:#94D4C4;}
	.st234{fill:#6ABFDB;}
	.st235{fill:#7CC7DE;}
	.st236{fill:#7CDDC5;}
	.st237{fill:#94D4C6;}
	.st238{fill:#47A78F;}
	.st239{fill:#95D5C6;}
	.st240{fill:#7CDBC6;}
	.st241{fill:#78C5DE;}
	.st242{fill:#82E0C9;}
	.st243{fill:#8ED1C1;}
	.st244{fill:#94D7C7;}
	.st245{fill:#8CCDDD;}
	.st246{fill:#48A691;}
	.st247{fill:#45B399;}
	.st248{fill:#4BA891;}
	.st249{fill:#93D5C4;}
	.st250{fill:#46B399;}
	.st251{fill:#44B398;}
	.st252{fill:#87D4DA;}
	.st253{fill:#29A7A6;}
	.st254{fill:#28A5A8;}
	.st255{fill:#88D4DC;}
	.st256{fill:#8BCCDE;}
	.st257{fill:#87D3DC;}
	.st258{fill:#83DFCB;}
	.st259{fill:#4CA894;}
	.st260{fill:#89D3DA;}
	.st261{fill:#25A4A7;}
	.st262{fill:#8AD7D1;}
	.st263{fill:#88D2DC;}
	.st264{fill:#7BC7DA;}
	.st265{fill:#8BCBDF;}
	.st266{fill:#88D3DC;}
	.st267{fill:#30A995;}
	.st268{fill:#38ABAA;}
	.st269{fill:#92D8C9;}
	.st270{fill:#2797B6;}
	.st271{fill:#85DEC9;}
	.st272{fill:#55AE99;}
	.st273{fill:#87CADF;}
	.st274{fill:#91D8C7;}
	.st275{fill:#45B39A;}
	.st276{fill:#42AA92;}
	.st277{fill:#83D4D9;}
	.st278{fill:#88D4DA;}
	.st279{fill:#88CADF;}
	.st280{fill:#88D7D5;}
	.st281{fill:#34A4C0;}
	.st282{fill:#2499B6;}
	.st283{fill:#6EC2D5;}
	.st284{fill:#6AB8B8;}
	.st285{fill:#61B5B4;}
	.st286{fill:#5FB4B2;}
	.st287{fill:#62B6B4;}
	.st288{fill:#88D6D6;}
	.st289{fill:#26A4AC;}
	.st290{fill:#7ED2D1;}
	.st291{fill:#6DBBB8;}
	.st292{fill:#89D7D4;}
	.st293{fill:#6DC1D6;}
	.st294{fill:#7CD1CF;}
	.st295{fill:#69BFD5;}
	.st296{fill:#2395B9;}
	.st297{fill:#60B5B2;}
	.st298{fill:#7CD2CF;}
	.st299{fill:#5EB4B0;}
	.st300{fill:#87D7D6;}
	.st301{fill:#7BD1CE;}
	.st302{fill:#45B299;}
	.st303{fill:#89D7D5;}
	.st304{fill:#8AD7D3;}
	.st305{fill:#2FACA8;}
	.st306{fill:#64B6B6;}
	.st307{fill:#6CBAB8;}
	.st308{fill:#31ADA8;}
	.st309{fill:#6FBCB9;}
	.st310{fill:#8AD6D4;}
	.st311{fill:#80D2D2;}
	.st312{fill:#82C9C0;}
	.st313{fill:#2498B5;}
	.st314{fill:#70BDB9;}
	.st315{fill:#8FD6CD;}
	.st316{fill:#50ADA2;}
	.st317{fill:#43B199;}
	.st318{fill:#53B0A7;}
	.st319{fill:#8FD6CE;}
	.st320{fill:#51AFA4;}
	.st321{fill:#73D1C5;}
	.st322{fill:#3BB4A5;}
	.st323{fill:#80C7BF;}
	.st324{fill:#73D1C6;}
	.st325{fill:#50AEA3;}
	.st326{fill:#6AC8D8;}
	.st327{fill:#29A5A0;}
	.st328{fill:#8DD6CF;}
	.st329{fill:#4AA7B8;}
	.st330{fill:#7BC4BD;}
	.st331{fill:#39B2A6;}
	.st332{fill:#7EC5BE;}
	.st333{fill:#8ED6CE;}
	.st334{fill:#32AAC0;}
	.st335{fill:#88D1DE;}
	.st336{fill:#88D2DD;}
	.st337{fill:#75BECA;}
	.st338{fill:#75BECB;}
	.st339{fill:#24A4AA;}
	.st340{fill:#8AD1DD;}
	.st341{fill:#44A4B6;}
	.st342{fill:#65C6D8;}
	.st343{fill:#4CA9B7;}
	.st344{fill:#38B1A6;}
	.st345{fill:#74BEC8;}
	.st346{fill:#79C3BB;}
	.st347{fill:#4FAAB7;}
	.st348{fill:#79C1CD;}
	.st349{fill:#33AFA7;}
	.st350{fill:#6ECAD8;}
	.st351{fill:#37ABA2;}
	.st352{fill:#92D6CB;}
	.st353{fill:#3FB6A4;}
	.st354{fill:#31AABD;}
	.st355{fill:#4EAAB7;}
	.st356{fill:#91D6CD;}
	.st357{fill:#8AD7D2;}
	.st358{fill:#8BCFC4;}
	.st359{fill:#5BB4AE;}
	.st360{fill:#72BEB9;}
	.st361{fill:#93D6CC;}
	.st362{fill:#70CBD8;}
	.st363{fill:#35AEA7;}
	.st364{fill:#30ABBC;}
	.st365{fill:#54AFA5;}
	.st366{fill:#79C5DE;}
	.st367{fill:#4BAB9D;}
	.st368{fill:#47A999;}
	.st369{fill:#89D1DD;}
	.st370{fill:#35ADC3;}
	.st371{fill:#3DB5A4;}
	.st372{fill:#85CBC0;}
	.st373{fill:#43A5B6;}
	.st374{fill:#91D6CC;}
	.st375{fill:#77BFCB;}
	.st376{fill:#69C8D8;}
	.st377{fill:#71D1C3;}
	.st378{fill:#4AAC9B;}
	.st379{fill:#88CCC1;}
	.st380{fill:#89D0DD;}
	.st381{fill:#48A7B7;}
	.st382{fill:#64C6D7;}
	.st383{fill:#7AC1CE;}
	.st384{fill:#70D2C2;}
	.st385{fill:#46A6B7;}
	.st386{fill:#37AEC3;}
	.st387{fill:#3EB5A3;}
	.st388{fill:#91D7CB;}
	.st389{fill:#88CDC2;}
	.st390{fill:#66C7D8;}
	.st391{fill:#5CB0B6;}
	.st392{fill:#62C5D7;}
	.st393{fill:#88CCE3;}
	.st394{fill:#89D1DC;}
	.st395{fill:#41A3B5;}
	.st396{fill:#42ADB6;}
	.st397{fill:#89D1DE;}
	.st398{fill:#78C0CC;}
	.st399{fill:#37AFC4;}
	.st400{fill:#34ACC1;}
	.st401{fill:#6EBAC0;}
	.st402{fill:#38AEC4;}
	.st403{fill:#8AD0DE;}
	.st404{fill:#3FACB5;}
	.st405{fill:#76C0CC;}
	.st406{fill:#88D1DD;}
	.st407{fill:#48A6B7;}
	.st408{fill:#249CB1;}
	.st409{fill:#63C5D7;}
	.st410{fill:#41A4B6;}
	.st411{fill:#8AD0DC;}
	.st412{fill:#39AFC6;}
	.st413{fill:#86C9E0;}
	.st414{fill:#31A1C1;}
	.st415{fill:#3BA0B5;}
	.st416{fill:#47B5DB;}
	.st417{fill:#7EC4D0;}
	.st418{fill:#3DA1B4;}
	.st419{fill:#80C5D2;}
	.st420{fill:#8DCFDE;}
	.st421{fill:#60C4D7;}
	.st422{fill:#3BB0C8;}
	.st423{fill:#249BB1;}
	.st424{fill:#8ACFDE;}
	.st425{fill:#39B0C6;}
	.st426{fill:#3AA0B4;}
	.st427{fill:#3BB0C9;}
	.st428{fill:#8BD0DC;}
	.st429{fill:#389EB4;}
	.st430{fill:#3BB1CA;}
	.st431{fill:#3AAFC7;}
	.st432{fill:#81C6D2;}
	.st433{fill:#8BCFDC;}
	.st434{fill:#81C7D4;}
	.st435{fill:#5DC3D8;}
	.st436{fill:#84C6D5;}
	.st437{fill:#269BB2;}
	.st438{fill:#88CAE7;}
	.st439{fill:#3CB1CB;}
	.st440{fill:#5AC1D8;}
	.st441{fill:#8CCFDE;}
	.st442{fill:#399FB5;}
	.st443{fill:#88C9D7;}
	.st444{fill:#2796BC;}
	.st445{fill:#379DB5;}
	.st446{fill:#5BC1D9;}
	.st447{fill:#89CCE5;}
	.st448{fill:#80C4DB;}
	.st449{fill:#47B6DC;}
	.st450{fill:#88CCE4;}
	.st451{fill:#55BBDF;}
	.st452{fill:#2F9AC0;}
	.st453{fill:#85C9E1;}
	.st454{fill:#80C4DD;}
	.st455{fill:#309EC4;}
	.st456{fill:#8BCCE6;}
	.st457{fill:#39AED9;}
	.st458{fill:#88C9E0;}
	.st459{fill:#3399C1;}
	.st460{fill:#81C4DB;}
	.st461{fill:#7AC5E2;}
	.st462{fill:#3FB1D9;}
	.st463{fill:#83C4DE;}
	.st464{fill:#3CACD7;}
	.st465{fill:#369BC0;}
	.st466{fill:#51BAE0;}
	.st467{fill:#389EC4;}
	.st468{fill:#51B9DF;}
	.st469{fill:#3CB0DA;}
	.st470{fill:#379BC2;}
	.st471{fill:#8ACBE4;}
	.st472{fill:#5DC1E9;}
	.st473{fill:#57ADC3;}
	.st474{fill:#34A9AB;}
	.st475{fill:#098BE6;}
	.st476{fill:#92E6FE;}
	.st477{fill:#2E83B9;}
	.st478{fill:#2D81BB;}
	.st479{fill:#CBFEFE;}
	.st480{fill:#3B7CAA;}
	.st481{fill:#9BD4F7;}
	.st482{fill:#3184B6;}
	.st483{fill:#3E7FA8;}
	.st484{fill:#CCFEFE;}
	.st485{fill:#F6F6F6;}
	.st486{fill:#1D9DB9;}
	.st487{fill:#1595CB;}
	.st488{fill:#1897C6;}
	.st489{fill:#F8FCFC;}
	.st490{fill:#F2FAFB;}
	.st491{fill:#F7FCFC;}
	.st492{fill:#F6FBFC;}
	.st493{fill:#2792BC;}
	.st494{fill:#2691BB;}
	.st495{fill:#1F9EB5;}
	.st496{fill:#1899C3;}
	.st497{fill:#F8FBFC;}
	.st498{fill:#1091D6;}
	.st499{fill:#95E8FE;}
	.st500{fill:#3286B4;}
	.st501{fill:#9FD8F2;}
	.st502{fill:#FBFDFD;}
	.st503{fill:#1595CD;}
	.st504{fill:#1796CA;}
	.st505{fill:#E8F5F8;}
	.st506{fill:#E0F0F6;}
	.st507{fill:#F9FCFC;}
	.st508{fill:#1999C3;}
	.st509{fill:#ECF8FA;}
	.st510{fill:#EBF9FB;}
	.st511{fill:#24A3A8;}
	.st512{fill:#25A5A6;}
	.st513{fill:#28A79F;}
	.st514{fill:#C9F5FE;}
	.st515{fill:#E6E5F0;}
	.st516{fill:#CAF1F8;}
	.st517{fill:#83ADDE;}
	.st518{fill:#ECFDFE;}
	.st519{fill:#4C8ABF;}
	.st520{fill:#8BB6DC;}
	.st521{fill:#D4F8FE;}
	.st522{fill:#C9E4F4;}
	.st523{fill:#82A9CD;}
	.st524{fill:#B0D0EE;}
	.st525{fill:#CCECFE;}
	.st526{fill:#B8CDE5;}
	.st527{fill:#F8F8FA;}
	.st528{fill:#6BA2C8;}
	.st529{fill:#307EB6;}
	.st530{fill:#78BFED;}
	.st531{fill:#E0F4FB;}
	.st532{fill:#4687E5;}
	.st533{fill:#4881B9;}
	.st534{fill:#0C89E9;}
	.st535{fill:#CAECF4;}
	.st536{fill:#99DAFB;}
	.st537{fill:#46A1D4;}
	.st538{fill:#42ADD2;}
	.st539{fill:#4AB6FD;}
	.st540{fill:#76A6CC;}
	.st541{fill:#247CC7;}
	.st542{fill:#308DDE;}
	.st543{fill:#39A1E6;}
	.st544{fill:#1685E7;}
	.st545{fill:#3F73D6;}
	.st546{fill:#91EBFE;}
	.st547{fill:#3880B8;}
	.st548{fill:#AFF4FE;}
	.st549{fill:#D8F1FA;}
	.st550{fill:#F1F6FA;}
	.st551{fill:#88DBFE;}
	.st552{fill:#F1FAFD;}
	.st553{fill:#4281B4;}
	.st554{fill:#5593BD;}
	.st555{fill:#B7CEE2;}
	.st556{fill:#1293D2;}
	.st557{fill:#41A8DC;}
	.st558{fill:#1797C6;}
	.st559{fill:#44ABD4;}
	.st560{fill:#42A9D8;}
	.st561{fill:#53BAE3;}
	.st562{fill:#1F94C0;}
	.st563{fill:#F7FBFC;}
	.st564{fill:#0D8DE2;}
	.st565{fill:#148DDD;}
	.st566{fill:#1394CF;}
	.st567{fill:#45ACD0;}
	.st568{fill:#2CAA97;}
	.st569{fill:#2DAC94;}
	.st570{fill:#29A89F;}
	.st571{fill:#33AC90;}
	.st572{fill:#2EA996;}
	.st573{fill:#31AA98;}
	.st574{fill:#2AA99A;}
	.st575{fill:#29A89C;}
	.st576{fill:#2AA99C;}
	.st577{fill:#2BA999;}
	.st578{fill:#91D2CC;}
	.st579{fill:#31A995;}
	.st580{fill:#80C6C2;}
	.st581{fill:#29A79F;}
	.st582{fill:#44A296;}
	.st583{fill:#80DED0;}
	.st584{fill:#36AD91;}
	.st585{fill:#2DAB99;}
	.st586{fill:#8DD4CC;}
	.st587{fill:#35AC90;}
	.st588{fill:#7DDBD1;}
	.st589{fill:#2DAB97;}
	.st590{fill:#90D2C9;}
	.st591{fill:#32AB98;}
	.st592{fill:#8ED4CA;}
	.st593{fill:#2BAB97;}
	.st594{fill:#85CBBA;}
	.st595{fill:#2CAB95;}
	.st596{fill:#26A6A2;}
	.st597{fill:#28A7A0;}
	.st598{fill:#26A6A3;}
	.st599{fill:#27A6A2;}
	.st600{fill:#83C9C1;}
	.st601{fill:#8FD5CF;}
	.st602{fill:#2EA79C;}
	.st603{fill:#57B1A9;}
	.st604{fill:#77D1C9;}
	.st605{fill:#72BFB9;}
	.st606{fill:#46A898;}
	.st607{fill:#82DBD4;}
	.st608{fill:#8FD5D0;}
	.st609{fill:#50A9A3;}
	.st610{fill:#2EAAA9;}
	.st611{fill:#7DD2D1;}
	.st612{fill:#6AB9B7;}
	.st613{fill:#259AB6;}
	.st614{fill:#2DAAA9;}
	.st615{fill:#29A5A1;}
	.st616{fill:#30ACA8;}
	.st617{fill:#29A4A3;}
	.st618{fill:#2498B6;}
	.st619{fill:#29A5A2;}
	.st620{fill:#32AEA8;}
	.st621{fill:#2AA5A0;}
	.st622{fill:#5DB3B0;}
	.st623{fill:#7BD1CD;}
	.st624{fill:#2BA69E;}
	.st625{fill:#28A5A3;}
	.st626{fill:#72D1C4;}
	.st627{fill:#2FA898;}
	.st628{fill:#3CB4A5;}
	.st629{fill:#4DADA0;}
	.st630{fill:#38B2A6;}
	.st631{fill:#75D1C8;}
	.st632{fill:#39B2A5;}
	.st633{fill:#7CC5BC;}
	.st634{fill:#2EA79A;}
	.st635{fill:#7FC6BD;}
	.st636{fill:#3AB3A6;}
	.st637{fill:#2FA79A;}
	.st638{fill:#55B0A8;}
	.st639{fill:#2EA799;}
	.st640{fill:#4AA8B8;}
	.st641{fill:#6BC9D8;}
	.st642{fill:#31ABBE;}
	.st643{fill:#6CC9D8;}
	.st644{fill:#76D1C9;}
	.st645{fill:#249DB0;}
	.st646{fill:#249EAF;}
	.st647{fill:#79D2CB;}
	.st648{fill:#73BDC8;}
	.st649{fill:#6FD1C2;}
	.st650{fill:#31A897;}
	.st651{fill:#85CAC0;}
	.st652{fill:#30A897;}
	.st653{fill:#4DAC9E;}
	.st654{fill:#72D1C3;}
	.st655{fill:#75D1C7;}
	.st656{fill:#2CA69E;}
	.st657{fill:#8ACDC3;}
	.st658{fill:#6FD2C1;}
	.st659{fill:#3DB6A2;}
	.st660{fill:#259CB2;}
	.st661{fill:#259BB1;}
	.st662{fill:#33ACC0;}
	.st663{fill:#31A896;}
	.st664{fill:#70D1C2;}
	.st665{fill:#48AA9A;}
	.st666{fill:#7DC2D1;}
	.st667{fill:#7BC3CE;}
	.st668{fill:#259BB2;}
	.st669{fill:#35ADC2;}
	.st670{fill:#249CB0;}
	.st671{fill:#68C7D8;}
	.st672{fill:#60C5D7;}
	.st673{fill:#3EA2B5;}
	.st674{fill:#5FC3D8;}
	.st675{fill:#7FC4D2;}
	.st676{fill:#259AB3;}
	.st677{fill:#5CC2D8;}
	.st678{fill:#259AB4;}
	.st679{fill:#1C9DBA;}
	.st680{fill:#249AB4;}
	.st681{fill:#2294BE;}
	.st682{fill:#3FB1DA;}
	.st683{fill:#2495BE;}
	.st684{fill:#3D7DAA;}
	.st685{fill:#D6F6FC;}
	.st686{fill:#E0F3F9;}
	.st687{fill:#D6EDF6;}
	.st688{fill:#3E7FAA;}
	.st689{fill:#CEF4FA;}
	.st690{fill:#BDDFF3;}
	.st691{fill:#E9F3F8;}
	.st692{fill:#D6F4F7;}
	.st693{fill:#C5F9FE;}
	.st694{fill:#C2F7FE;}
	.st695{fill:#92D6EE;}
	.st696{fill:#D1EBF4;}
	.st697{fill:#437BA7;}
	.st698{fill:#0E8FDC;}
	.st699{fill:#2F82B9;}
	.st700{fill:#9CD7F3;}
	.st701{fill:#2E82BB;}
	.st702{fill:#9BD6F5;}
	.st703{fill:#0B8EDF;}
	.st704{fill:#0D8EDC;}
	.st705{fill:#94E8FE;}
	.st706{fill:#CAE8F5;}
	.st707{fill:#CEEFF5;}
	.st708{fill:#ECF2F8;}
	.st709{fill:#C5EDF7;}
	.st710{fill:#B2F8FE;}
	.st711{fill:#3580B5;}
	.st712{fill:#417EB2;}
	.st713{fill:#BCE7F6;}
	.st714{fill:#E6F7FC;}
	.st715{fill:#525999;}
	.st716{fill:#D76566;}
	.st717{fill:#F1ECEE;}
	.st718{fill:#E26B6D;}
	.st719{fill:#F9E9E9;}
	.st720{fill:#D16E73;}
	.st721{fill:#E3EEFB;}
	.st722{fill:#E3E0E2;}
	.st723{fill:#56697F;}
	.st724{fill:#E9C9CC;}
	.st725{fill:#394E66;}
	.st726{fill:#FC8A8B;}
	.st727{fill:#465666;}
	.st728{fill:#E4D9D9;}
	.st729{fill:#D9BBBC;}
	.st730{fill:#405064;}
	.st731{fill:#EF797A;}
	.st732{fill:#5E6977;}
	.st733{fill:#3A4F69;}
	.st734{fill:#607287;}
	.st735{fill:#FB9C9E;}
	.st736{fill:#E26163;}
	.st737{fill:#65689F;}
	.st738{fill:#374960;}
	.st739{fill:#48596B;}
	.st740{fill:#A5A7C8;}
	.st741{fill:#4B5968;}
	.st742{fill:#C6D0D5;}
	.st743{fill:#3A4756;}
	.st744{fill:#BACDE5;}
	.st745{fill:#334559;}
	.st746{fill:#36424F;}
	.st747{fill:#213041;}
	.st748{fill:#667280;}
	.st749{fill:#3A4B5F;}
	.st750{fill:#47586D;}
	.st751{fill:#405165;}
	.st752{fill:#586371;}
	.st753{fill:#39495E;}
	.st754{fill:#304257;}
	.st755{fill:#F9F9F9;}
	.st756{fill:#1495CE;}
	.st757{fill:#0F90DA;}
	.st758{fill:#0385F3;}
	.st759{fill:#1797C7;}
	.st760{fill:#1899C2;}
	.st761{fill:#1A9BBF;}
	.st762{fill:#E7E7E8;}
	.st763{fill:#48AFC9;}
	.st764{fill:#1696CA;}
	.st765{fill:#F4FAFB;}
	.st766{fill:#279BC7;}
	.st767{fill:#2C9DC8;}
	.st768{fill:#289DC7;}
	.st769{fill:#95CFE3;}
	.st770{fill:#48879D;}
	.st771{fill:#3F89A5;}
	.st772{fill:#1D97C9;}
	.st773{fill:#3B8EB0;}
	.st774{fill:#2099C8;}
	.st775{fill:#348CAE;}
	.st776{fill:#1C98C5;}
	.st777{fill:#88C6D6;}
	.st778{fill:#1998C4;}
	.st779{fill:#EDF9FB;}
	.st780{fill:#F5FAFC;}
	.st781{fill:#DFF3F9;}
	.st782{fill:#93C5DE;}
	.st783{fill:#BAE0F1;}
	.st784{fill:#0F90D9;}
	.st785{fill:#F8FCFD;}
	.st786{fill:#F4FAFC;}
	.st787{fill:#FAFDFD;}
	.st788{fill:#0E90DA;}
	.st789{fill:#3185B5;}
	.st790{fill:#2C9ED1;}
	.st791{fill:#258DBE;}
	.st792{fill:#3BA5D4;}
	.st793{fill:#2197CB;}
	.st794{fill:#E8F7FA;}
	.st795{fill:#1F9BCE;}
	.st796{fill:#E8F6F8;}
	.st797{fill:#E2F6FA;}
	.st798{fill:#1E96C9;}
	.st799{fill:#219DC1;}
	.st800{fill:#B0F6FE;}
	.st801{fill:#B7D0E2;}
	.st802{fill:#1C90C6;}
	.st803{fill:#38ACE2;}
	.st804{fill:#42A9D7;}
	.st805{fill:#ECF2F5;}
	.st806{fill:#EDF4F7;}
	.st807{fill:#B5E5F2;}
	.st808{fill:#CEFAFD;}
	.st809{fill:#E7EEF1;}
	.st810{fill:#3DB0D6;}
	.st811{fill:#2295BB;}
	.st812{fill:#D2EDF5;}
	.st813{fill:#DEFCFD;}
	.st814{fill:#CDF2F8;}
	.st815{fill:#4DAAD1;}
	.st816{fill:#D9F4F9;}
	.st817{fill:#C2ECF5;}
	.st818{fill:#DFF4F8;}
	.st819{fill:#5CACCC;}
	.st820{fill:#CAF7FC;}
	.st821{fill:#5FA9CA;}
	.st822{fill:#C9F5FA;}
	.st823{fill:#E2F2F5;}
	.st824{fill:#63A1BB;}
	.st825{fill:#CEF8FE;}
	.st826{fill:#D1FBFE;}
	.st827{fill:#6CAAC4;}
	.st828{fill:#679FB6;}
	.st829{fill:#B7E5F2;}
	.st830{fill:#D4F7FC;}
	.st831{fill:#C3EAEF;}
	.st832{fill:#659DB7;}
	.st833{fill:#60A7C6;}
	.st834{fill:#B2F2FD;}
	.st835{fill:#5DB3D9;}
	.st836{fill:#639EB8;}
	.st837{fill:#699DB4;}
	.st838{fill:#E0F1F7;}
	.st839{fill:#168FE1;}
	.st840{fill:#F1F9FB;}
	.st841{fill:#2091DC;}
	.st842{fill:#66A2CA;}
	.st843{fill:#DFF5FB;}
	.st844{fill:#CCE9F6;}
	.st845{fill:#3781B3;}
	.st846{fill:#E4F4F9;}
	.st847{fill:#1591E0;}
	.st848{fill:#DCF2F9;}
	.st849{fill:#47AECC;}
	.st850{fill:#ECF2F6;}
	.st851{fill:#DDF2F6;}
	.st852{fill:#2AA89E;}
	.st853{fill:#3EB6A3;}
	.st854{fill:#3CB5A3;}
	.st855{fill:#30A896;}
	.st856{fill:#29A89D;}
	.st857{fill:#2EA79B;}
	.st858{fill:#B3EBF6;}
	.st859{fill:#C8E7EF;}
	.st860{fill:#E1F4FC;}
	.st861{fill:#B8F2F9;}
	.st862{fill:#C8FEFE;}
	.st863{fill:#4DA0E9;}
	.st864{fill:#3183BE;}
	.st865{fill:#D1EEF6;}
	.st866{fill:#407CA9;}
	.st867{fill:#BAD0E0;}
	.st868{fill:#487EA4;}
	.st869{fill:#377FB0;}
	.st870{fill:#E0EAF1;}
	.st871{fill:#3481B5;}
	.st872{fill:#3D7EAA;}
	.st873{fill:#B0CFEB;}
	.st874{fill:#85ADC8;}
	.st875{fill:#87ADC6;}
	.st876{fill:#DFEEF8;}
	.st877{fill:#118BE1;}
	.st878{fill:#0B91D2;}
	.st879{fill:#1C87D5;}
	.st880{fill:#0B91D1;}
	.st881{fill:#4588BB;}
	.st882{fill:#C7F6FE;}
	.st883{fill:#1A87CE;}
	.st884{fill:#3E9AD2;}
	.st885{fill:#E5F6FD;}
	.st886{fill:#2E88C4;}
	.st887{fill:#D6EEF5;}
	.st888{fill:#66A8D3;}
	.st889{fill:#3E81AE;}
	.st890{fill:#3887C6;}
	.st891{fill:#B4EBF9;}
	.st892{fill:#5487AA;}
	.st893{fill:#C8FDFE;}
	.st894{fill:#A6A9C8;}
	.st895{fill:#9C9FC7;}
	.st896{fill:#989CCF;}
	.st897{fill:#EA8385;}
	.st898{fill:#EA5F61;}
	.st899{fill:#D5DFE5;}
	.st900{fill:#4A5A6C;}
	.st901{fill:#D5DDE6;}
	.st902{fill:#696969;}
	.st903{fill:#595959;}
	.st904{fill:#4F4F4F;}
	.st905{fill:#515151;}
	.st906{fill:#5D5D5D;}
	.st907{fill:#5B5B5B;}
	.st908{fill:#626262;}
	.st909{fill:#545454;}
	.st910{fill:#5A5A5A;}
	.st911{fill:#494949;}
	.st912{fill:#454545;}
	.st913{fill:#616161;}
	.st914{fill:#EEEEEE;}
	.st915{fill:#4E4E4E;}
	.st916{fill:#434343;}
	.st917{fill:#636363;}
	.st918{fill:#747474;}
	.st919{fill:#5C5C5C;}
	.st920{fill:#E7E7E7;}
	.st921{fill:#565656;}
	.st922{fill:#5F5F5F;}
	.st923{fill:#505050;}
	.st924{fill:#666666;}
	.st925{fill:#484848;}
	.st926{fill:#585858;}
	.st927{fill:#4A4A4A;}
	.st928{fill:#7C7C7C;}
	.st929{fill:#686868;}
	.st930{fill:#EAEAEA;}
	.st931{fill:#474747;}
	.st932{fill:#C4C4C4;}
	.st933{fill:#4B4B4B;}
	.st934{fill:#ABABAB;}
	.st935{fill:#DBDBDB;}
	.st936{fill:#646464;}
	.st937{fill:#575757;}
	.st938{fill:#6A6A6A;}
	.st939{fill:#E5E5E5;}
	.st940{fill:#D8D8D8;}
	.st941{fill:#909090;}
	.st942{fill:#7A7A7A;}
	.st943{fill:#C3C3C3;}
	.st944{fill:#C2C2C2;}
	.st945{fill:#F2F2F2;}
	.st946{fill:#6C6C6C;}
	.st947{fill:#525252;}
	.st948{fill:#717171;}
	.st949{fill:#C8C8C8;}
	.st950{fill:#6D6D6D;}
	.st951{fill:#A7A7A7;}
	.st952{fill:#606060;}
	.st953{fill:#727272;}
	.st954{fill:#BEBEBE;}
	.st955{fill:#535353;}
	.st956{fill:#B6B6B6;}
	.st957{fill:#B9B9B9;}
	.st958{fill:#7F7F7F;}
	.st959{fill:#E9E9E9;}
	.st960{fill:#6F6F6F;}
	.st961{fill:#676767;}
	.st962{fill:#E6E6E6;}
	.st963{fill:#444444;}
	.st964{fill:#E3E3E3;}
	.st965{fill:#858585;}
	.st966{fill:#E7F7FA;}
	.st967{fill:#1792DA;}
	.st968{fill:#EBF8FB;}
	.st969{fill:#118FDC;}
	.st970{fill:#1090DA;}
	.st971{fill:#84C1DE;}
	.st972{fill:#D3EFF9;}
	.st973{fill:#C7E8F6;}
	.st974{fill:#AEF5FE;}
	.st975{fill:#2E7ABB;}
	.st976{fill:#DEF4F7;}
	.st977{fill:#DFF4F7;}
	.st978{fill:#EEF9FA;}
	.st979{fill:#EFFDFE;}
	.st980{fill:#65A4B5;}
	.st981{fill:#6EA2AF;}
	.st982{fill:#AFE4E9;}
	.st983{fill:#3196C0;}
	.st984{fill:#65A3BE;}
	.st985{fill:#2A90B7;}
	.st986{fill:#358CAE;}
	.st987{fill:#1F95D1;}
	.st988{fill:#2E9BD5;}
	.st989{fill:#3989B4;}
	.st990{fill:#43A5D8;}
	.st991{fill:#2F9AD5;}
	.st992{fill:#5EAAD4;}
	.st993{fill:#5DA2C7;}
	.st994{fill:#7CAFCA;}
	.st995{fill:#2193D0;}
	.st996{fill:#1D94D2;}
	.st997{fill:#98D0ED;}
	.st998{fill:#4481A1;}
	.st999{fill:#7AAFCD;}
	.st1000{fill:#90B9CF;}
	.st1001{fill:#329CD4;}
	.st1002{fill:#1190DB;}
	.st1003{fill:#DFF4F9;}
	.st1004{fill:#DBF7F9;}
	.st1005{fill:#70A2B7;}
	.st1006{fill:#B3F2FE;}
	.st1007{fill:#72A3B8;}
	.st1008{fill:#669DB6;}
	.st1009{fill:#E9595B;}
	.st1010{fill:#495095;}
	.st1011{fill:#689BB4;}
	.st1012{fill:#47A7D4;}
	.st1013{fill:#49ADD5;}
	.st1014{fill:#73A2B6;}
	.st1015{fill:#70A1B6;}
	.st1016{fill:#6D9CB0;}
	.st1017{fill:#699CB4;}
	.st1018{fill:#7DA7BA;}
	.st1019{fill:#7DA7B9;}
	.st1020{fill:#7DA7B8;}
	.st1021{fill:#49AAD7;}
	.st1022{fill:#1A92E2;}
	.st1023{fill:#F7FAFB;}
	.st1024{fill:#478CB8;}
	.st1025{fill:#1D86CD;}
	.st1026{fill:#3C7EAB;}
	.st1027{fill:#2E8ECC;}
	.st1028{fill:#427EA5;}
	.st1029{fill:#1B92DE;}
	.st1030{fill:#138FDC;}
	.st1031{fill:#1E87C9;}
	.st1032{fill:#178ED9;}
	.st1033{fill:#0B8EDD;}
	.st1034{fill:#52A6D8;}
	.st1035{fill:#5C9CC4;}
	.st1036{fill:#4199CB;}
	.st1037{fill:#DEF2F7;}
	.st1038{fill:#E9F7F9;}
	.st1039{fill:#DAF6FB;}
	.st1040{fill:#87CFE4;}
	.st1041{fill:#D3EFF4;}
	.st1042{fill:#D3E9EF;}
	.st1043{fill:#78C2DA;}
	.st1044{fill:#D1E5EB;}
	.st1045{fill:#E1F1F4;}
	.st1046{fill:#C4F5FB;}
	.st1047{fill:#EDFDFE;}
	.st1048{fill:#C1F4FC;}
	.st1049{fill:#C3F6FC;}
	.st1050{fill:#C6F7FD;}
	.st1051{fill:#67A1B4;}
	.st1052{fill:#68A1B3;}
	.st1053{fill:#535898;}
	.st1054{fill:#E98587;}
	.st1055{fill:#EFEDEF;}
	.st1056{fill:#DB7277;}
	.st1057{fill:#DC6E70;}
	.st1058{fill:#D17375;}
	.st1059{fill:#D0CEDD;}
	.st1060{fill:#F1DDDE;}
	.st1061{fill:#ECC8C9;}
	.st1062{fill:#5F6599;}
	.st1063{fill:#A2A7D2;}
	.st1064{fill:#61ABC3;}
	.st1065{fill:#337FBE;}
	.st1066{fill:#FDFEFE;}
	.st1067{fill:#CEEAF5;}
	.st1068{fill:#47A0D0;}
	.st1069{fill:#1F86CA;}
	.st1070{fill:#ACDEF5;}
	.st1071{fill:#458ABA;}
	.st1072{fill:#2495DB;}
	.st1073{fill:#1F94DA;}
	.st1074{fill:#4180A5;}
	.st1075{fill:#3782AE;}
	.st1076{fill:#4B84AC;}
	.st1077{fill:#E1E1E1;}
	.st1078{fill:#CCCCCC;}
	.st1079{fill:#F4F4F4;}
	.st1080{fill:#7E7E7E;}
	.st1081{fill:#D1D1D1;}
	.st1082{fill:#C1C1C1;}
	.st1083{fill:#F3F3F3;}
	.st1084{fill:#DCDCDC;}
	.st1085{fill:#DDDDDD;}
	.st1086{fill:#8E8E8E;}
	.st1087{fill:#BBBBBB;}
	.st1088{fill:#BABABA;}
	.st1089{fill:#DEDEDE;}
	.st1090{fill:#E0E0E0;}
	.st1091{fill:#0D88EF;}
	.st1092{fill:#65B5CA;}
	.st1093{fill:#62B3CA;}
	.st1094{fill:#59B5CD;}
	.st1095{fill:#0E91D7;}
	.st1096{fill:#D7FDFE;}
	.st1097{fill:#C0ECF7;}
	.st1098{fill:#D9EFF7;}
	.st1099{fill:#A4A7CA;}
	.st1100{fill:#59B0CA;}
	.st1101{fill:#5EB0CA;}
	.st1102{fill:#9195C5;}
	.st1103{fill:#969CD1;}
	.st1104{fill:#9A9FD0;}
	.st1105{fill:#D5D8EB;}
	.st1106{fill:#727171;}
	.st1107{fill:#FFFFFF;}
	.st1108{fill:url(#SVGID_1_);}
	.st1109{opacity:0.55;}
</style>
<g>
	<linearGradient id="SVGID_1_" gradientUnits="userSpaceOnUse" x1="57.2205" y1="-191.1297" x2="1665.6946" y2="972.7256">
		<stop  offset="0" style="stop-color:#0285F4"/>
		<stop  offset="0.3633" style="stop-color:#0988ED"/>
		<stop  offset="0.6805" style="stop-color:#26A5A8"/>
		<stop  offset="1" style="stop-color:#2DAB98"/>
	</linearGradient>
	<path class="st1108" d="M1591.78-147.09c-101.15,0.16-529.18,0.11-663.55,0.11c-307.29,0-620.72,0.02-928.01-0.13
		c0,0-0.02,633.79,0,947.55c2.24,0.3,2.29-1.37,2.76-2.88c1.52-4.85,3.19-9.65,4.77-14.48c0.5-1.53,0.93-3.07,3-1.61
		c1.78,3.64,3.64,7.24,5.31,10.94c0.91,2.03,2.24,2.76,4.27,1.98c4.49-1.71,5.51,0.71,5.81,4.52c2.17,18.14,4.93,34.85,7.52,53.87
		c5.38-6.04,9.88-5.08,14.14-0.38c2.17,2.98,3.28,6.39,4.31,9.88c1.66,5.63,3.58,11.18,5.32,16.79c1.15,3.74,4.51,5.77,7.5,5.89
		c3.19,0.12,2.65-4.13,3.3-6.52c3.12-11.64,4.79-23.73,11.16-34.31c1.68-0.43,0.87-3.43,2.76-3.06c0.86,0.17,1.41,2.09,2.01,3.26
		c0.41,0.8,0.66,1.68,0.99,2.52c1.43,4.67,2.26,9.56,4.97,13.76l-0.04,0.1c-0.06,2.35,0.48,4.38,2.84,5.48
		c0.74,0.9,1.48,1.81,2.22,2.71c0.01,0,0.01,0,0.01,0c5.32,8.73,11.82,16.1,22.1,19.07c3.55,3.24,6.36,4.57,8.62,4.57
		c7,0,8.74-12.76,10.91-20.92c1.84-4.32,2.51-9.5,8.07-11.1h0.01l0.04-0.03c2.81-0.8,5.99-0.67,8.86-1.31
		c2.87-0.65,5.41-2.06,6.97-5.94c2.39-5.98,4.8-3.84,6.49,0.72c2.82,7.64,8.71,10.85,16.4,11.92c3.63,0.51,5.32-0.54,6.16-4.09
		c2.24-9.45,4.73-18.83,7.13-28.24c3.3-1.73,5.25-2.76,6.67-2.76c2.04,0,2.97,2.12,5.24,7.29c5.95,13.53,13.07,26.62,15.23,41.53
		c1.06,32.01,17.16,60.94,20.38,92.69c0.65,6.19,4.49,9.85,9.16,13.43c5.48-9.34,5.66-21.5,16.77-26.71
		c1.47,2.54,3.07,5.01,4.4,7.63c3.27,6.47,8.53,10.21,15.43,12.12c3.14,0.87,4.97,0.13,6.75-2.6c3.7-5.7,7.73-11.26,10.05-17.64
		c2.45-6.74,6.71-9.14,13.5-7.7c4.2,4.79,7.26,4.32,10.87-1.2c4-6.1,5.35-12.55,6.36-19.56c1.12-7.76,3.72-15.3,5.94-24.01
		c2.56,3.82,4.29,6.42,6.03,9.02c0.01,1.87,1.04,3.19,2.37,4.35c1.07,5.74,2.19,11.47,3.53,17.14c1.34,5.68,2.9,11.3,4.85,16.83
		c0.09,2.23,1.31,3.88,2.77,5.41c1.99,4.2,2.89,9.19,8.05,11.09v-0.03c3.8,3.88,4.23,3.87,5.79-0.02h-0.04
		c1.73-1.47,2.31-3.43,2.44-5.59c0.23-0.23,0.34-0.49,0.34-0.76c0-0.14-0.02-0.28-0.08-0.43c1.77-1.99,2.66-4.3,2.68-6.96
		c3.52-5.05,5.75-7.52,8.19-7.52c2.24,0,4.64,2.09,8.36,6.16c0.58,0.62,1.41,1.01,2.13,1.51v0.11c0,2.14,2.09,2.5,3.25,3.66
		c0.83,0.99,1.62,1.72,2.38,2.18c1.27,0.77,2.44,0.76,3.5-0.05c0.8-0.62,1.54-1.71,2.21-3.28c0.71-1.06,1.42-2.11,2.13-3.18
		c0.21-0.31,0.42-0.63,0.63-0.94c0.97-0.92,1.97-1.82,2.87-2.8c1.07-1.15,2-2.41,2.59-3.96c7.22-9.76,11.25-9.81,18.18,0.36
		c3.83,5.63,8.85,7.12,14.95,6.36c0.28-0.03,0.57-0.07,0.86-0.12c0.88,0.36,1.76,0.71,2.64,1.07c0.46,0.19,0.93,0.37,1.4,0.56
		c0.09,0.59,0.11,1.19,0.11,1.8c0,2.13-0.26,4.31,1.38,6.14c0,0.83,0.02,1.66,0.18,2.44c0.16,0.78,0.46,1.53,1.05,2.2
		c0.01,0.01,0.01,0.01,0.02,0.02c0.07,0.93,0.14,1.86,0.21,2.8c0.05,0.71,0.11,1.42,0.16,2.13c-0.11,0.43-0.16,0.85-0.16,1.26
		c0,1.54,0.7,2.92,1.46,4.29c0.57,2.37,1.12,4.75,1.7,7.11c0.15,0.63,0.31,1.26,0.47,1.89c0.64,2.51,1.63,4.39,4.46,1.93
		c0.09-0.06,0.18-0.13,0.27-0.19c0.47-0.34,0.94-0.67,1.42-1c0.37,0.07,0.69-0.02,0.97-0.27c0.2-0.16,0.39-0.32,0.59-0.49
		c0.29-0.24,0.58-0.48,0.87-0.72c0.69-2.06,1.66-4.03,2.47-6.05c0.82-2.03,1.5-4.09,1.61-6.35c0.07-0.21,0.1-0.41,0.1-0.61
		c0-0.23-0.04-0.46-0.13-0.69c0.2-0.72,0.4-1.44,0.61-2.16c0.28-1.03,0.57-2.06,0.86-3.08c0.01-0.01,0.01-0.01,0.01-0.01
		c1.28-1.65,1.21-3.63,1.4-5.55c0.02-0.01,0.03-0.02,0.05-0.03c0.8-0.46,1.61-0.91,2.41-1.37c0.14,0.93,0.09,1.91,0.21,2.85
		c0.11,0.94,0.39,1.84,1.2,2.6c-0.01,0.15-0.01,0.3-0.01,0.46c0,0.98,0.13,1.93,0.53,2.81c0.18,0.41,0.42,0.81,0.73,1.18
		c0.12,1.19,0.25,2.37,0.37,3.56c-0.05,0.27-0.08,0.53-0.08,0.78c0,1.7,1.05,3.12,1.56,4.69c0.28,1.48,0.53,2.98,0.92,4.41
		c0.06,0.24,0.13,0.49,0.21,0.73c0.53,1.66,1.29,3.23,2.57,4.6c0.51,0.33,1.02,0.65,1.53,0.97c0.01,0.01,0.03,0.01,0.04,0.02
		c0.41,0.17,0.82,0.34,1.23,0.51c0.11,0.15,0.22,0.28,0.34,0.39c1.05,1.05,2.43,0.81,3.78,0.7c0.57,0.06,1.13,0.13,1.68,0.13
		c0.94,0,1.82-0.23,2.51-1.19c0.44-0.1,0.85-0.28,1.22-0.52l0.66,0.05l0.62-0.24c0.91,0.2,1.82,0.39,2.73,0.58
		c0.13,0.7,0.13,1.44,0.29,2.13c0.11,0.46,0.29,0.9,0.63,1.27c0.15,0.18,0.35,0.34,0.58,0.49c0.41,0.99,0.82,1.98,1.23,2.97
		c0.14,0.79,0.27,1.59,0.41,2.38c0.41,1.1,0.81,2.22,1.28,3.29c0.19,0.45,0.39,0.9,0.62,1.34c0.76,1.46,1.73,2.82,3.12,3.91
		c0.2,0.14,0.4,0.28,0.6,0.42c0.3,0.22,0.61,0.43,0.91,0.64l0.55,0.33l0.64-0.03l0.09,0.4c0.47,0.34,0.9,0.63,1.31,0.85
		c0.94,0.53,1.71,0.75,2.36,0.75c0.83,0,1.46-0.36,1.98-0.93c1.17-1.28,1.77-3.6,2.74-5.23c0.25-0.38,0.51-0.75,0.76-1.13
		c0.13-0.19,0.25-0.38,0.38-0.57c1.07-1.78,2.3-3.15,3.97-3.36c0.87-0.13,1.86,0.07,3.02,0.69c0.16,0.04,0.32,0.08,0.48,0.12
		c0.27,0.07,0.55,0.14,0.83,0.22c0.56,0.69,1.23,1.15,1.97,1.47c0.49,0.22,1.01,0.38,1.54,0.51c0.27,0.07,0.55,0.13,0.83,0.18
		c0.99,0.44,1.87,0.84,2.67,1.17c1.33,0.56,2.44,0.92,3.43,0.92c0.32,0,0.62-0.04,0.92-0.11c1.2-0.32,2.29-1.33,3.5-3.4
		c0.13-0.22,0.26-0.46,0.4-0.71c0.8-1.02,1.61-2.05,2.42-3.07c0.5,0.04,1.01,0.08,1.52,0.12c0.39,0.04,0.78,0.07,1.17,0.1
		c0.17,1.25,0.38,2.48,0.79,3.64c0.34,0.96,0.82,1.86,1.54,2.66c0.14,0.16,0.29,0.32,0.46,0.48c-0.1,0.42-0.06,0.83,0.12,1.23
		c0.84,2.87,1.86,5.63,3.77,7.87c0.5,0.59,1.07,1.15,1.71,1.66c0.45,1,0.99,1.88,1.79,2.4c0.5,0.35,1.11,0.54,1.86,0.54
		c0.12,0,0.24,0,0.36-0.01c0.63,0.71,1.34,1.27,2.12,1.67c0.99,0.53,2.11,0.81,3.32,0.87c0.06,0.02,0.12,0.03,0.18,0.04
		c0.38,0.11,0.76,0.15,1.15,0.15c0.99,0.87,2.08,1.03,3.2,1.01c0.83-0.01,1.68-0.12,2.51-0.11c0.33,0.09,0.66,0.18,0.99,0.27
		c0.46,0.12,0.93,0.25,1.39,0.37c0.98,0.36,1.97,0.72,2.95,1.07c0.97,0.35,1.93,0.7,2.9,1.05c0.19,0.15,0.39,0.25,0.6,0.3
		c0.11,0.03,0.23,0.04,0.35,0.04c0.06,0,0.11,0,0.17-0.01c0.47,0.44,0.95,0.88,1.42,1.32c0.85,0.73,1.65,1.16,2.41,1.35
		c0.32,0.08,0.63,0.12,0.94,0.12c0.9,0,1.75-0.33,2.56-0.87c0.75-0.5,1.48-1.18,2.19-1.95c0.49-0.42,0.98-0.85,1.46-1.27
		c0.01,0,0.01,0,0.01,0c0.23-0.21,0.46-0.43,0.68-0.65c1.4-1.38,2.53-2.93,3.5-4.58c1.05-1.78,1.92-3.69,2.73-5.63
		c0.34-0.56,0.68-1.13,1.02-1.69c0.22-0.22,0.42-0.46,0.59-0.71c1.36-1.9,1.69-4.55,3.5-6.09c0.45-0.39,1-0.71,1.67-0.93
		c0.89-0.47,1.79-0.95,2.68-1.42c0.04-0.02,0.08-0.04,0.12-0.06c1.11-0.51,2.23-0.99,3.38-0.47c0.18,0.08,0.35,0.18,0.53,0.31
		c0.87,0.96,1.75,1.92,2.62,2.87c0.43,0.63,0.82,1.11,1.19,1.46c0.54,0.51,1.03,0.74,1.46,0.74c0.85,0,1.51-0.86,2.04-2.12
		c1.23-2.9,1.78-7.97,2.34-9.7c0.95-1.31,1.24-2.76,1.24-4.26c0-0.43-0.02-0.86-0.06-1.29c0.2-0.35,0.31-0.71,0.31-1.11
		c0-0.05-0.01-0.11-0.01-0.16c-0.24-0.02-0.44-0.12-0.61-0.29c0.03-0.09,0.04-0.18,0.07-0.28l0.54,0.57
		c0.19-0.29,0.37-0.59,0.53-0.89c1.55-2.88,1.82-6.08,2.06-9.3c0.12-1.75-0.11-3.72,1.44-4.73c0.35-0.23,0.81-0.41,1.38-0.52
		c0.84,0.06,1.68,0.13,2.52,0.19c0.15,0.01,0.29,0.02,0.44,0.03c1.17,0.08,2.33,0.16,3.5,0.24c0.46,0.04,0.91,0.07,1.37,0.1
		c0.05,1.3,0.23,2.54,0.67,3.67c0.43,1.14,1.12,2.17,2.19,3.03c0.04,0.05,0.08,0.1,0.12,0.16c1.38,1.74,2.54,3.59,3.5,5.56
		c0.63,1.28,1.16,2.61,1.62,3.98c0.31,2.27-0.37,4.78,1.62,6.64c0.36,1.06,0.74,2.12,1.1,3.18c0.11,0.31,0.21,0.61,0.32,0.92
		c0.08,0.85,0.15,1.71,0.23,2.57c0.98,2.8,1.96,5.59,2.95,8.39c0.3,0.86,0.61,1.73,0.91,2.59c-0.03,1.55-0.07,3.11,1.19,4.3
		c0.21,1.09,0.13,2.27,0.23,3.39c0.1,1.12,0.38,2.2,1.36,3.1c-0.01,0.18-0.01,0.36-0.01,0.55c0,1.09,0.17,2.14,0.67,3.11
		c0.15,0.28,0.32,0.55,0.52,0.82c0.08,0.83,0.15,1.66,0.22,2.49c0.1,2.23,0.71,4.28,1.5,6.28c0.39,1.01,0.83,2.01,1.26,3
		c0.43,0.98,0.86,1.96,1.25,2.95c0.47,0.45,0.95,0.89,1.43,1.33c0.3,0.34,0.68,0.54,1.13,0.58c0.18,0.11,0.35,0.23,0.53,0.34
		c0.32,0.2,0.64,0.4,0.96,0.61c0.48,0.7,1.12,1.05,1.81,1.26c0.24,0.07,0.48,0.12,0.73,0.16c0.48,0.09,0.97,0.14,1.44,0.23
		c0.54,0.27,1.09,0.55,1.63,0.82l0.63,0.11l0.62-0.17h0.03c0.87,0.02,1.74,0.03,2.61,0.05c0.3,0.02,0.59,0.04,0.89,0.06
		c0.16,0.01,0.33,0.03,0.49,0.04c0.46,0.07,0.91,0.15,1.37,0.22c0.51,0.36,1.03,0.72,1.54,1.08c0.26,0.29,0.57,0.46,0.94,0.52
		c0.06,0.02,0.13,0.03,0.19,0.03c0.49,0.34,0.99,0.68,1.48,1.02c0.71,0.42,1.32,0.69,1.83,0.84c3.13,0.92,2.88-2.68,3.64-4.92
		c0.2-0.37,0.45-0.72,0.7-1.06c0.99-1.32,2.14-2.56,1.79-4.48c0.02-0.45,0.05-0.9,0.08-1.35c0.31-0.32,0.39-0.68,0.25-1.1
		c0.44-0.96,0.87-1.92,1.31-2.88c0.02-0.02,0.05-0.04,0.07-0.06c0.63-0.51,0.92-1.15,1.07-1.82c0.16-0.7,0.16-1.46,0.24-2.18
		c0.96-0.17,1.91-0.33,2.87-0.5l0.17,0.06l0.42,0.15l0.61-0.09c0.45,0.17,0.89,0.33,1.33,0.5l-0.13-0.6
		c0.08,0.01,0.16,0.02,0.24,0.03c-0.04,0.19-0.08,0.38-0.11,0.57c0.41,0.29,0.79,0.52,1.14,0.68c2.45,1.16,3.52-0.56,4.34-2.78
		c0.08-0.21,0.16-0.42,0.23-0.63c0-0.01,0-0.01,0-0.01c0.39-0.51,0.77-1.02,1.16-1.52c0.47-0.88,0.94-1.76,1.41-2.63
		c0.23-0.35,0.46-0.7,0.7-1.04c0.16-0.24,0.32-0.47,0.48-0.71c0.58-0.2,0.9-0.57,1.11-1c0.2-0.44,0.29-0.94,0.39-1.44
		c0.79,0.05,1.58,0.09,2.37,0.13c0.03,0.01,0.06,0.01,0.09,0.01c0.44,0.53,0.88,1.05,1.32,1.58c0.48,0.44,0.95,0.88,1.42,1.32v0.04
		c0,0.35,0.14,0.64,0.41,0.86c0.09,0.09,0.17,0.19,0.26,0.28c0.93,1,1.83,2.06,3.04,2.06c0.4,0,0.82-0.12,1.3-0.39
		c0.22-0.13,0.45-0.29,0.69-0.49c1.07,0,2.13-0.04,2.81-1.01c0.03-0.04,0.05-0.08,0.08-0.12c0.44-0.02,0.83-0.17,1.17-0.45
		c0.47-0.37,0.93-0.73,1.4-1.1c0.69-0.34,1.26-0.77,1.7-1.29c0.64-0.74,1-1.66,1.09-2.77c1.08-0.78,2.03-1.63,2.41-2.82
		c0.14-0.42,0.21-0.88,0.19-1.39c0.24-0.34,0.31-0.71,0.22-1.11c0.35-0.61,0.71-1.22,1.06-1.83c1.92-1.2,1.51-3.18,1.67-4.97
		c0.45-0.98,0.86-1.97,1.2-2.98c0.95-2.76,1.48-5.62,1.48-8.58c0-0.29,0-0.57-0.01-0.86c0.8-1.92,1.53-3.84,2.03-5.82
		c0.54-2.13,0.81-4.31,0.59-6.6c0.05-0.84,0.1-1.68,0.15-2.51c0.6-0.88,0.87-1.83,1-2.8c0.13-0.97,0.12-1.97,0.15-2.96
		c1.29-1.83,1.43-3.84,1.43-5.86c0-1.56-0.09-3.12,0.2-4.63c0.28-0.17,0.56-0.34,0.83-0.52c0.59-0.36,1.18-0.73,1.77-1.1
		c0.44-0.36,0.87-0.72,1.31-1.07c0.14-0.09,0.28-0.17,0.42-0.25c0.28-0.18,0.57-0.35,0.85-0.52c0.5-0.3,1-0.61,1.49-0.91
		c0.67-0.04,1.33-0.08,2-0.13c0.23-0.01,0.47-0.02,0.7-0.04l1.17,1.68c0.53,1.11,1.08,2.22,1.63,3.32c0.37,0.73,0.74,1.46,1.11,2.19
		c-0.02,0.1-0.03,0.19-0.03,0.29c0,0.27,0.09,0.53,0.26,0.77c1.05,1.35,1.7,3.66,3.01,4.38c0.25,0.15,0.54,0.23,0.85,0.23
		c0.7,0,1.55-0.39,2.65-1.38c0.13-0.11,0.26-0.24,0.4-0.37c0.4-0.46,0.81-0.93,1.21-1.4c0.44-0.51,0.89-1.03,1.33-1.55
		c0.46-0.41,0.93-0.82,1.39-1.23h0.01c0.47-0.07,0.93-0.13,1.4-0.2c0.46,0.02,0.92,0.05,1.38,0.07c0.24,0.07,0.48,0.15,0.72,0.22
		c0.21,0.06,0.42,0.12,0.63,0.19c1.24,0.53,2.47,1.06,3.71,1.59c0.58,0.25,1.17,0.5,1.75,0.75c0.43,0.95,0.86,1.9,1.29,2.85
		c0.15-0.16,0.31-0.33,0.46-0.49c0.02-0.03,0.05-0.05,0.07-0.08c0.01,0.16,0.02,0.32,0.03,0.48l-0.1,0.02l-0.46,0.07
		c0.09,0.63,0.25,1.23,0.46,1.81c0.49,1.37,1.28,2.59,2.26,3.71c0.81,1.29,0.92,4.04,2.09,4.65c0.15,0.09,0.32,0.13,0.51,0.13
		c0.67,0,1.61-0.54,2.99-1.98c0.01-0.01,0.01-0.01,0.02-0.02c1.21-0.65,2.13-1.51,2.25-2.98c0.32-0.33,0.46-0.71,0.44-1.16
		c0.4-0.57,0.79-1.13,1.19-1.7c0.17-0.06,0.31-0.14,0.44-0.23c0.31-0.21,0.52-0.49,0.67-0.79c0.2-0.44,0.28-0.95,0.35-1.47
		c0.82-0.74,1.65-1.48,2.48-2.23c0.09-0.07,0.17-0.15,0.26-0.23c0.55-0.11,1.09-0.23,1.56-0.45c0.48-0.24,0.89-0.58,1.17-1.15
		c0.45-0.39,0.91-0.77,1.36-1.15c0.04-0.03,0.08-0.07,0.12-0.1c0.43,0.01,0.83-0.06,1.23-0.22c0.72,0.83,1.43,1.67,2.15,2.5
		c0.13,0.16,0.27,0.31,0.4,0.47c1.61,2.95,2.81,4.93,3.94,6.08c1.14,1.15,2.2,1.47,3.5,1.1c1-0.28,2.14-0.95,3.58-1.96
		c0.25-0.25,0.51-0.51,0.77-0.76c0.21-0.21,0.41-0.41,0.62-0.61c1.1-0.89,2.06-1.86,2.88-2.91c1.84-2.34,3.05-5.05,3.79-8.05
		c0.14-0.39,0.29-0.77,0.43-1.15c0.04-0.06,0.09-0.12,0.12-0.18c1.34-1.9,2.25-4.09,3.5-6.05c0.81-1.25,1.75-2.41,3.03-3.33
		c0.44-0.55,0.88-1.1,1.32-1.66c0.39-0.49,0.78-0.99,1.17-1.48c0.78,0.3,1.55,0.6,2.33,0.9c0.66,0.25,1.33,0.51,1.99,0.76
		c0.79,0.8,1.57,1.62,2.35,2.42c0.12,0.13,0.25,0.25,0.37,0.38c0.81,1.54,1.86,2.84,3.13,3.93c0.67,0.58,1.39,1.09,2.18,1.55
		c0.72,0.62,1.45,1.24,2.17,1.86c0.27,0.23,0.53,0.45,0.8,0.68c1.21,0.97,2.01,2.19,2.7,3.49c0.87,1.62,1.55,3.35,2.59,4.86
		c0.5,1.34,1.01,2.69,1.51,4.03c-0.01,0.7,0.08,1.36,0.24,1.99c0.52,2.15,1.84,3.99,3.05,5.77c0.15,0.22,0.3,0.43,0.45,0.61
		c1.5,1.86,3.19,2.14,4.34-0.63c0.08-0.18,0.15-0.37,0.22-0.57c0.41-0.07,0.79-0.21,1.14-0.43l0.66,0.14l0.63-0.23
		c0.28,0.02,0.57,0.04,0.85,0.06c1.07,0.08,2.13,0.16,3.21,0.24l0.24-0.14c0.3,0.36,0.6,0.72,0.9,1.08c0.11,0.13,0.22,0.26,0.33,0.4
		c1.05,0.55,2.11,1.1,3.17,1.65c0.75,0.39,1.49,0.78,2.24,1.17c0,0,0,0,0.01,0c0.51,0.34,1.02,0.68,1.53,1.03
		c0.17,0.17,0.35,0.29,0.56,0.36c0.12,0.05,0.26,0.08,0.4,0.09c0.53,0.41,1.06,0.82,1.58,1.23c0.51,0.33,1.01,0.66,1.52,1l2.61,1.71
		c0.4,0.54,0.8,1.09,1.2,1.63c0,0.01,0,0.01,0,0.01c-0.03,0.35,0.05,0.68,0.24,0.98c0.1,0.18,0.2,0.36,0.3,0.54
		c1.09,2.06,1.92,4.48,3.5,5.86c1.03,0.89,2.38,1.34,4.34,0.95c0.46-0.09,0.95-0.22,1.48-0.41c0.41-0.03,0.8-0.12,1.18-0.29
		c0.28-0.1,0.56-0.18,0.84-0.23c1.45-0.31,2.9-0.1,4.35,0.09c1.03,0.14,2.07,0.28,3.1,0.23c0.13,0.03,0.27,0.06,0.4,0.08
		c1.45,0.31,2.9,0.62,4.34,0.92c0.29,0.06,0.57,0.12,0.86,0.18c0.01,0,0.01,0,0.01,0c0.33,0.24,0.7,0.38,1.11,0.41
		c0.57,0.1,1.07,0.24,1.52,0.42c2,0.78,2.86,2.31,3.4,4.04c0.38,1.24,0.6,2.6,0.95,3.87c0.25,0.88,0.57,1.72,1.06,2.45l-0.04,0.05
		c0.2,0.16,0.34,0.37,0.43,0.6c-0.15-0.21-0.29-0.4-0.43-0.6c0.45,3.61,1.38,7.08,2.48,10.49c1.36,4.22,2.99,8.35,4.34,12.57
		c0.46,1.42,0.89,2.86,1.26,4.31c0.47,1.36,0.94,2.73,1.41,4.1c0.23,1.14,0.51,2.27,0.83,3.37c0.5,1.71,1.11,3.36,1.89,4.93
		c0.68,1.37,1.49,2.68,2.46,3.89c0.84,1.08,1.8,2.08,2.9,3c0.2,0.13,0.4,0.26,0.6,0.4c0.91,0.63,1.79,1.32,2.73,1.89
		c0.51,0.32,1.05,0.6,1.61,0.81c0.69,0.28,1.42,0.46,2.22,0.49c0.43,0.04,0.85,0.08,1.28,0.12c0.46,0.04,0.92,0.08,1.37,0.12
		c0.99,0.22,1.98,0.58,2.97,0.64c0.1,0.01,0.2,0.01,0.3,0.01c0.7,0,1.39-0.17,2.09-0.64c0.37-0.03,0.74-0.07,1.11-0.1
		c0.52-0.05,1.04-0.09,1.55-0.14c0.94,0.07,1.87,0.14,2.8,0.21c0.84,0.06,1.68,0.13,2.52,0.19c0.27,0.46,0.6,0.75,0.98,0.93
		c0.11,0.05,0.22,0.09,0.33,0.12c0.52,0.16,1.1,0.17,1.68,0.17c0.69,0.81,1.48,1.17,2.33,1.3c1,0.17,2.07,0.04,3.11,0.02
		c0.13-0.01,0.26-0.01,0.39-0.02c0.78-0.03,1.56-0.08,2.34-0.11l0.65,0.15l0.65-0.16c0.25-0.05,0.49-0.12,0.71-0.2
		c0.75-0.27,1.34-0.72,1.83-1.28c0.63-0.72,1.11-1.6,1.57-2.49l0.1-0.13l1.01-1.34c0.63-1.27,1.27-2.54,1.9-3.82
		c0.43-0.9,0.85-1.8,1.28-2.69c0.05-0.06,0.1-0.11,0.15-0.17c0.37-0.43,0.75-0.86,1.12-1.28c0.46-0.09,0.92-0.18,1.37-0.26
		c0.34,0,0.67,0.01,1.01,0.02c0.55,0.01,1.1,0.02,1.64,0.03c0.9,0.01,1.8,0.02,2.71,0.03c0.93,0.01,1.86,0.02,2.79,0.03
		c0.21,0.19,0.45,0.28,0.71,0.28c0.07,0,0.15-0.01,0.23-0.03c0.51,0.5,1.02,0.99,1.53,1.48c0.52,0.38,1.04,0.75,1.56,1.13
		c0.34,0.19,0.68,0.38,1.02,0.56c0.55,0.32,1.11,0.63,1.67,0.93c0,0,0,0,0,0.01c0.43,0.45,0.86,0.91,1.29,1.37
		c0.18,0.29,0.36,0.58,0.54,0.86c0.34,0.54,0.68,1.08,1.02,1.61c0.52,1.29,1.34,2.3,2.68,2.83c0.18,0.41,0.39,0.79,0.65,1.12
		c0.5,0.67,1.19,1.14,2.14,1.33c0.45,0.04,0.89,0.09,1.34,0.14c0.01,0,0.01,0,0.02,0c0.46-0.01,0.92-0.01,1.38-0.02
		c0.44,0,0.89,0,1.33-0.01l0.66,0.17l0.66-0.15h1.4c0.46,0.02,0.92,0.04,1.38,0.05l0.62,0.15l0.41-0.01l0.23-0.01
		c0.87,0.93,1.88,1.36,3.02,1.36c0.35,0,0.72-0.05,1.1-0.13c0.02,0,0.04-0.01,0.06-0.01c0.46,0.01,0.92,0.03,1.38,0.04
		c0.67,0.64,1.36,1.02,2.06,1.17c1.11,0.24,2.25-0.12,3.4-0.98c0.33-0.01,0.64-0.09,0.94-0.21c0.11-0.05,0.22-0.1,0.32-0.16
		c0.48-0.03,0.95-0.05,1.43-0.07c0-0.01,0-0.01,0-0.01c0.58,0.11,1.17,0.21,1.75,0.31c0.29,0.05,0.58,0.11,0.87,0.16
		c0.52,0.27,1.05,0.55,1.57,0.83c0.34,0.28,0.73,0.45,1.17,0.52c0.24,0.1,0.49,0.21,0.73,0.32c1.17,0.5,2.33,1.01,3.5,1.51
		c0.47,0.2,0.94,0.41,1.41,0.61c0.31,0.24,0.66,0.36,1.05,0.37v0.04c0,0.38,0.15,0.69,0.45,0.93c0.48,0.31,0.96,0.61,1.44,0.92
		c1.16,0.75,2.33,1.49,3.5,2.23c0.56,0.36,1.12,0.71,1.68,1.07l1.29,1.47c0.46,0.72,0.92,1.43,1.37,2.15
		c0.08,0.11,0.15,0.23,0.22,0.34c0.94,1.82,2.04,3.04,3.28,3.73c0.85,0.48,1.77,0.71,2.76,0.71c0.52,0,1.05-0.06,1.59-0.19
		c1.05-0.22,2.16-0.67,3.32-1.32c0.06-0.01,0.12-0.01,0.18-0.01c1.45-0.1,3.01,0.32,4.34-0.4c0.29-0.15,0.56-0.35,0.82-0.62
		c0.42-0.17,0.85-0.33,1.27-0.5c0.45-0.04,0.9-0.09,1.36-0.13h0.05c1.08,0.01,2.2,0.18,3.28,0.18c0.36,0,0.72-0.02,1.07-0.07
		c0.87-0.12,1.72-0.44,2.51-1.14c0.34-0.05,0.67-0.15,0.99-0.27c0.1-0.05,0.2-0.09,0.3-0.14c0.94,0.05,1.89,0.1,2.83,0.15
		c0.39,0.14,0.8,0.23,1.21,0.27c1.09,0.89,2.28,1.11,3.5,1.13c1.17,0.02,2.37-0.16,3.54-0.11l0.65,0.11l0.16-0.04l0.48-0.14
		c0.86,0.01,1.71,0.03,2.57,0.04c0.15,0.01,0.3,0.01,0.45,0.02c0.33,0.01,0.66,0.03,0.99,0.05c0.47,0.04,0.95,0.09,1.42,0.13
		c0.37,0.2,0.77,0.28,1.19,0.23c0.25,0.14,0.49,0.27,0.74,0.4c0.65,0.36,1.3,0.7,1.94,1.05c0.47,0.5,0.99,0.78,1.56,0.93
		c0.86,0.24,1.8,0.19,2.71,0.26c0.48,0.37,0.96,0.73,1.44,1.09c0.06,0.07,0.13,0.14,0.2,0.18c0.23,0.2,0.51,0.29,0.82,0.31
		c0.51,0.41,1.02,0.83,1.52,1.24c0.3,0.53,0.7,0.83,1.16,1.02c0.51,0.2,1.09,0.25,1.69,0.28c0.41,0.27,0.78,0.64,1.18,0.95
		c0.41,0.31,0.83,0.56,1.36,0.56c0.04,0.03,0.07,0.06,0.11,0.09c0.47,0.39,0.96,0.77,1.44,1.16c-0.03-0.25,0.02-0.48,0.12-0.71
		c0.02,0.02,0.05,0.02,0.07,0.03c-0.07,0.23-0.13,0.46-0.19,0.68c0.54,0.82,1.27,1.16,2.06,1.31c0.66,0.14,1.35,0.15,2.03,0.21
		c0.77,0.4,1.55,0.79,2.31,1.19c0.09,0.04,0.17,0.09,0.26,0.13l0.42-0.57c0,0.01,0.01,0.03,0.02,0.05c-0.15,0.17-0.3,0.34-0.44,0.52
		c1.11,0.62,2.19,0.95,3.24,1.06c1.5,0.17,2.94-0.12,4.35-0.68c1.19-0.47,2.35-1.12,3.5-1.85c0.01-0.01,0.02-0.01,0.03-0.02
		c0.53-0.41,1.05-0.82,1.58-1.23c0.4-0.06,0.77-0.19,1.12-0.38c0.49-0.33,0.97-0.66,1.46-0.99c0.05-0.01,0.1-0.03,0.15-0.04
		c0.39-0.12,0.78-0.22,1.18-0.33c0.23,0.04,0.45,0.05,0.67,0.05c0.59,0,1.14-0.12,1.65-0.35c0.59-0.24,1.14-0.6,1.67-1.03
		c0.5-0.38,1-0.76,1.5-1.13c0.44-0.46,0.83-0.95,1.18-1.46c1.2-1.69,2-3.61,2.73-5.57c0.1-0.25,0.15-0.51,0.15-0.77
		c0-0.17-0.03-0.34-0.07-0.52c0.23-0.54,0.46-1.08,0.69-1.62c0.55-1.29,1.09-2.57,1.64-3.86c0.21-0.85,0.42-1.69,0.63-2.54v-0.01
		c0.43-0.89,0.86-1.78,1.29-2.67c0.26-0.06,0.52-0.1,0.78-0.12c0.31-0.04,0.63-0.05,0.95-0.05c0.85,0,1.71,0.08,2.55,0.06
		c1.35-0.03,2.65-0.3,3.75-1.54l-0.13-0.12c0-0.01,0-0.02,0-0.02c0.04,0.04,0.08,0.09,0.13,0.14c0.2-0.09,0.4-0.18,0.6-0.27
		c1.47-0.66,2.94-1.31,3.5-2.97c0.08-0.2,0.13-0.41,0.17-0.64c0.44-0.39,0.88-0.79,1.32-1.19h0.01c0.43-0.55,0.87-1.1,1.31-1.66
		c0.45-0.44,0.9-0.89,1.35-1.33c0.06-0.01,0.12-0.02,0.18-0.02c0.38-0.04,0.78-0.05,1.17-0.05c0.79,0,1.58,0.03,2.33-0.15
		c0.66-0.16,1.28-0.47,1.82-1.09c0.41-0.06,0.8-0.2,1.15-0.42c0.46,0.06,0.92,0.12,1.38,0.18c0.89,0.11,1.77,0.23,2.65,0.34
		c0.22,0.44,0.51,0.71,0.85,0.88c0.12,0.07,0.24,0.12,0.37,0.16c0.49,0.16,1.05,0.18,1.59,0.23l2.38,0.99l3.5,1.47l0.87,0.36
		c1.22,0.76,2.37,1.08,3.48,1.06c1.22-0.02,2.37-0.44,3.5-1.13c0.54-0.32,1.07-0.71,1.6-1.14c0.79-0.7,1.58-1.4,2.37-2.1
		c0.13-0.09,0.25-0.18,0.37-0.28c1.61-1.19,2.71-2.66,3.5-4.29c0.03-0.05,0.05-0.09,0.07-0.14c0.84-1.82,1.3-3.84,1.61-5.93
		c-0.12-3.09,1.86-5.52,2.66-8.31c0.11-0.36,0.19-0.72,0.25-1.09c1.03-1.04,1.78-2.45,3.25-2.88c0.26-0.08,0.53-0.12,0.84-0.13
		c0.85-0.02,1.69-0.03,2.54-0.04c0.34-0.05,0.67-0.07,0.97-0.05c1.48,0.05,2.59,0.78,3.5,1.83c0.35,0.39,0.67,0.83,0.97,1.3
		c0.86,0.97,1.72,1.95,2.58,2.92c0.2,0.63,0.47,1.2,0.79,1.73c0.89,1.54,2.19,2.77,3.5,3.99c0.38,0.35,0.77,0.71,1.15,1.07
		c0.48,0.43,0.97,0.86,1.45,1.29c0.58,0.54,1.17,1.07,1.75,1.61c1.17,1.08,2.34,2.16,3.5,3.23c0.61,0.56,1.22,1.12,1.82,1.68
		c0.84,1,1.68,1.99,2.52,2.99c0.01,0.01,0.02,0.03,0.03,0.04c1.04,1.29,2,2.71,3.47,3.39c0.62,0.29,1.34,0.44,2.19,0.39
		c0.72,0,1.44,0,2.16,0.01h1.79c0.57,0.05,1.15,0.13,1.71,0.16c0.23,0.02,0.46,0.03,0.68,0.03c1.15,0,2.25-0.27,3.16-1.38
		c0.17-0.11,0.33-0.21,0.5-0.32c0.68-0.44,1.37-0.88,2.04-1.31c0.49-0.14,0.97-0.29,1.46-0.44c0.96-0.29,1.92-0.57,2.87-0.86
		c0.49-0.16,0.99-0.32,1.48-0.48c0.83-0.27,1.66-0.54,2.5-0.81c0.33,0.13,0.67,0.27,1,0.41c0.98,0.39,1.95,0.79,2.93,1.19
		c0.47,0.24,0.94,0.49,1.41,0.72c0.07,0.04,0.14,0.07,0.21,0.11c0.9,0.07,1.79,0.13,2.69,0.19c0.18,0.31,0.38,0.55,0.6,0.75
		c0.72,0.64,1.61,0.79,2.57,0.79c0.3,0,0.61-0.01,0.92-0.03c0.29-0.01,0.58-0.01,0.86-0.02c1.05-0.03,2.1-0.06,3.14-0.08
		c0.12,0.02,0.24,0.05,0.36,0.08c1.46,0.32,2.88,0.95,4.34,1.24c0.47,0.09,0.94,0.15,1.43,0.15c0.67,0,1.36-0.1,2.07-0.39
		c0.02-0.01,0.03-0.01,0.05-0.02c0.95,0.1,1.9,0.2,2.85,0.3c0.26,0.28,0.58,0.46,0.95,0.54c0.16,0.14,0.33,0.28,0.49,0.42
		c0.82,0.7,1.63,1.39,2.45,2.09c0.31,0.48,0.66,0.91,1.05,1.24c0.84,0.79,1.88,1.25,3.17,1.28c0.4,0.34,0.79,0.68,1.18,1.02
		l0.21,0.18c0.46,0.5,0.92,1,1.38,1.5c0.56,0.72,1.2,1.28,1.91,1.72c0.14,0.08,0.27,0.16,0.41,0.23c0.88,0.47,1.84,0.78,2.85,1.02
		c0.36,0.61,0.72,1.22,1.08,1.82c0.16,0.27,0.32,0.54,0.48,0.81c0.48,0.87,0.95,1.74,1.43,2.61c0.42,0.97,0.95,1.81,1.59,2.55
		c1.04,1.21,2.35,2.16,3.83,2.95c0.16,0.28,0.33,0.54,0.52,0.78c0.86,1.12,2.02,1.84,3.46,2.19c0.01,0.01,0.03,0.03,0.04,0.04
		c1.47,1.39,2.91,1.89,4.34,1.71c1.18-0.12,2.34-0.7,3.5-1.61c0.16-0.12,0.31-0.24,0.46-0.37c0.5-0.41,1-0.82,1.5-1.23
		c0.9-0.2,1.69-0.51,2.39-0.96c0.26-0.16,0.51-0.34,0.75-0.54c0.86-0.73,1.54-1.67,2.04-2.83c0.18-0.23,0.27-0.47,0.27-0.72
		c0-0.18-0.05-0.37-0.15-0.57c0.19-0.23,0.39-0.47,0.59-0.7c0.24-0.29,0.49-0.58,0.74-0.88c0.44-0.42,0.88-0.83,1.33-1.25
		c0.81-0.57,1.57-1.18,2.27-1.84c1.17-1.11,2.18-2.38,2.96-3.84c0.18-0.32,0.36-0.63,0.54-0.95c0.32-0.57,0.65-1.15,0.97-1.72
		c1.25-0.48,2.12-1.89,3.38-2.34c0.26-0.1,0.53-0.15,0.82-0.15c0.37,0,0.78,0.09,1.24,0.3c0.46,0.37,0.94,0.62,1.44,0.77
		c0.76,0.24,1.57,0.28,2.38,0.28c0.65,0,1.31-0.02,1.96,0.02c0.37,0.02,0.75,0.07,1.11,0.15c0.5,0.33,1,0.66,1.49,0.98
		c0.29,0.18,0.58,0.3,0.9,0.39c0.09,0.02,0.19,0.04,0.28,0.06c1.34,0.88,2.6,1.32,3.78,1.32c0.1,0,0.19,0,0.29-0.01
		c1.26-0.08,2.42-0.65,3.5-1.74c0.3-0.3,0.59-0.65,0.88-1.03c0.5-0.4,0.99-0.8,1.49-1.21c0.59-0.61,1.27-1.12,1.97-1.6
		c0.5-0.35,1-0.68,1.49-1.03c0.74-0.53,1.44-1.11,2.01-1.82c0.34-0.43,0.64-0.9,0.87-1.45c0.27-0.25,0.39-0.55,0.37-0.92
		c0.49-0.41,0.97-0.83,1.46-1.25c0.44-0.5,0.88-1,1.33-1.5h0.31c0.69,0.01,1.38,0.01,2.07,0.01c0.01,0,0.01,0,0.01,0
		c0.47,0.33,0.95,0.67,1.42,1.01c0.04,0.03,0.07,0.05,0.11,0.08c0.91,0.5,1.82,1.01,2.72,1.52c0.51,0.34,1.02,0.68,1.52,1.03
		c0.83,0.56,1.66,1.12,2.48,1.68c0.34,0.38,0.68,0.76,1.02,1.14c0.53,0.6,1.07,1.19,1.61,1.8c0,0.01,0,0.01,0,0.01
		c0.77,1.16,1.64,2.18,2.73,2.84c0.85,0.51,1.83,0.81,3.01,0.79c0.16,0.1,0.32,0.18,0.49,0.23c0.15,0.04,0.31,0.06,0.47,0.06
		c0.06,0,0.13,0,0.19-0.01c1.1,1.09,2.39,0.98,3.69,0.82c1.15-0.14,2.32-0.32,3.36,0.27c0.05,0.04,0.09,0.07,0.14,0.11
		c0.75,0.59,1.51,1.18,2.26,1.76c0.61,0.66,1.32,1.12,2.08,1.47c1.08,0.51,2.27,0.78,3.43,1.1c0.02,0.04,0.04,0.08,0.07,0.12
		c0.29,0.51,0.72,0.77,1.18,0.92c0.5,0.15,1.05,0.19,1.59,0.26c0.5,0.44,1.03,0.73,1.58,0.92c1.12,0.41,2.3,0.4,3.5,0.33
		c0.61-0.03,1.22-0.07,1.83-0.08c0.84-0.07,1.68-0.12,2.51-0.19c0.04,0,0.07-0.01,0.11-0.01c1.12,0,2.25,0.09,3.39,0.17
		c0.99,0.07,1.99,0.14,2.97,0.14c0.46,0,0.93-0.01,1.38-0.05c1.2-0.1,2.37-0.35,3.5-0.88c0.89-0.4,1.74-0.98,2.56-1.8
		c0.59-0.38,1.19-0.76,1.78-1.14c0.26-0.17,0.51-0.33,0.77-0.5c1.03-0.16,1.94-0.51,2.73-1.07c0.56-0.39,1.06-0.89,1.49-1.51
		c1.13,0.23,2.04-0.1,2.86-0.65c0.38-0.27,0.75-0.59,1.11-0.92c0.8-0.26,1.59-0.52,2.39-0.77c1.45-0.47,2.9-0.94,4.34-1.4
		c0.13-0.05,0.26-0.09,0.39-0.13c0.38-0.07,0.74-0.2,1.07-0.41c0.68-0.22,1.36-0.44,2.04-0.66c0.78-0.25,1.56-0.5,2.34-0.75
		c0.8,0.3,1.43,0.13,2-0.19c0.61-0.34,1.17-0.85,1.79-1.16c0.57-0.17,1.14-0.35,1.71-0.52c1.45-0.44,2.9-0.89,4.35-1.33
		c0.37-0.11,0.75-0.23,1.12-0.34c0.79-0.27,1.59-0.54,2.38-0.82c1.45-0.49,2.89-0.99,4.34-1.49c0.48-0.17,0.96-0.33,1.44-0.5
		c0.38-0.08,0.73-0.22,1.06-0.42c0.33-0.09,0.67-0.18,1-0.27c1.07-0.29,2.13-0.57,3.2-0.85c0.38-0.02,0.77-0.03,1.15-0.05
		c0.53-0.02,1.05-0.04,1.58-0.06c0.44-0.01,0.89-0.02,1.33-0.04c0.2-0.02,0.39-0.03,0.59-0.05c0.26-0.02,0.53-0.04,0.79-0.06
		c0.21,0.02,0.41,0.04,0.61,0.04c0.89,0,1.67-0.27,2.16-1.22c0.27,0.03,0.53,0.05,0.78,0.04c0.8-0.03,1.51-0.29,2.02-1.09h0.15
		c0.41,0,0.78-0.11,1.12-0.34l0.21-0.03c0.39-0.05,0.77-0.1,1.15-0.14c0-0.01,0-0.01,0-0.01c0.82,0.09,1.64,0.18,2.46,0.27
		c0.27-0.18,0.49-0.39,0.71-0.61c0.01,0.09,0.02,0.18,0.03,0.27c0.01,0.12,0.03,0.25,0.04,0.37c-0.01,0.01-0.03,0.01-0.04,0.01
		c-0.11,0.04-0.21,0.06-0.31,0.06c-0.15,0-0.29-0.03-0.43-0.1c0.23,0.35,0.47,0.67,0.74,0.96c0.91,0.98,2.06,1.56,3.5,1.67
		c0.03,0.01,0.07,0.01,0.11,0.01l-0.06-0.04c0.02-0.01,0.03-0.03,0.05-0.04c0,0.03,0.01,0.06,0.01,0.08
		c0.91,1.49,2.45,1.51,3.91,1.7c0.11,0.04,0.22,0.08,0.32,0.11c1.34,0.47,2.5,0.67,3.5,0.64c1.98-0.03,3.37-0.94,4.35-2.45
		c0.86-1.3,1.42-3.06,1.79-5.08c0.4-0.09,0.78-0.24,1.12-0.46c0.23,0.04,0.42,0.03,0.59-0.01c0.5-0.11,0.78-0.54,0.97-1.08
		c0.4-0.53,0.8-1.06,1.2-1.58c0-0.01,0-0.01,0-0.01c0.73-0.38,1.45-0.76,2.17-1.13c0.26-0.14,0.51-0.27,0.76-0.4
		c0.85-0.37,1.7-0.73,2.54-1.1l0.2,0.01l0.46,0.01l0.62-0.21c0.48-0.09,0.95-0.18,1.43-0.28c0,0,0,0,0,0.01
		c0.47-0.29,0.94-0.58,1.4-0.88c0.15-0.14,0.3-0.28,0.44-0.42c0.31-0.29,0.62-0.59,0.92-0.88c0.86-0.01,1.72-0.03,2.58-0.04h0.13
		c0.47-0.02,0.94-0.05,1.41-0.07l0.67,0.03l0.66-0.14c0.49,0.03,0.98,0.06,1.47,0.09c0.35,0.02,0.71,0.04,1.06,0.07
		c0.23-0.21,0.45-0.43,0.68-0.64c0.08,0.19,0.17,0.38,0.28,0.56c-0.2,0.08-0.39,0.12-0.6,0.12c-0.12,0-0.24-0.01-0.36-0.04
		c0.73,0.66,1.55,1.05,2.44,1.19c0.56,0.09,1.16,0.08,1.78-0.02c0.89-0.03,1.77-0.07,2.56-0.24c0.38-0.08,0.74-0.19,1.07-0.34
		c1.04-0.48,1.82-1.35,2.12-3c0.11-0.03,0.21-0.07,0.31-0.1c0.29-0.12,0.57-0.28,0.83-0.47c0.52-0.31,1.05-0.62,1.57-0.94
		c0.43-0.4,0.87-0.81,1.3-1.21c0.22,0.07,0.43,0.15,0.65,0.22c0.68,0.24,1.36,0.47,2.04,0.71c0.29,0.23,0.63,0.34,1.01,0.31
		c0.14,0.2,0.29,0.36,0.45,0.5c0.69,0.6,1.59,0.68,2.54,0.61c0.59,0.23,1.16,0.76,1.77,0.76h0.03c0.31-0.01,0.64-0.16,0.98-0.59
		l1.47-0.36c0.11,0.01,0.22,0.01,0.32,0.01c0.26,0,0.5-0.02,0.73-0.08c0.62-0.14,1.13-0.49,1.52-1.12c0.47,0.04,0.89-0.08,1.27-0.35
		l1.47-0.96h0.09c0.73-0.02,1.46,0,2.15-0.13c0.48-0.1,0.94-0.27,1.35-0.61c0.19-0.15,0.38-0.34,0.55-0.57
		c0.48-0.38,0.96-0.76,1.44-1.14c0.45-0.01,0.85-0.14,1.22-0.38c0.38-0.07,0.75-0.13,1.13-0.19c0.08-0.01,0.17-0.03,0.25-0.04
		c0.1,0,0.21,0.01,0.31,0.01c0.87,0.04,1.72,0.07,2.59,0.11l0.35,0.06l0.25,0.05c1.05-0.29,2.19-0.07,3.26-0.11
		c0.28,0.04,0.56,0.08,0.84,0.13c0.17,0.02,0.33,0.04,0.5,0.07c0.02-13.83,0.06-233.38,0.1-479.82
		c0.05-328.71,0.11-705.26,0.11-705.26C1597.4-147.1,1594.73-147.1,1591.78-147.09z M655.64,991.31c-0.11,0.08-0.21,0.16-0.31,0.23
		c0.11-0.09,0.21-0.19,0.31-0.28V991.31z M985.23,1058.22v-0.1c0.13,0.11,0.26,0.24,0.39,0.38
		C985.46,1058.39,985.24,1058.23,985.23,1058.22z"/>
	<g class="st1109">
		<rect x="406.7" y="935.75" class="st1107" width="3.5" height="35.96"/>
		<rect x="414.54" y="937.56" class="st1107" width="3.5" height="34.15"/>
		<rect x="453.76" y="946.46" class="st1107" width="3.5" height="25.25"/>
		<rect x="461.61" y="939.93" class="st1107" width="3.5" height="46.5"/>
		<rect x="469.45" y="939.2" class="st1107" width="3.5" height="50.86"/>
		<rect x="477.3" y="931.25" class="st1107" width="3.5" height="40.46"/>
		<rect x="485.14" y="930.3" class="st1107" width="3.5" height="57.39"/>
		<rect x="492.99" y="931.25" class="st1107" width="3.5" height="60.98"/>
		<rect x="500.83" y="963.17" class="st1107" width="3.5" height="27.97"/>
		<rect x="508.68" y="955.73" class="st1107" width="3.5" height="51.94"/>
		<rect x="516.52" y="961.74" class="st1107" width="3.5" height="53.38"/>
		<g>
			<rect x="524.36" y="909.59" class="st1107" width="3.5" height="107.16"/>
			<g>
				<rect x="532.21" y="883.99" class="st1107" width="3.5" height="138.04"/>
				<path class="st1107" d="M543.55,883.98v122.04c-0.8-0.33-1.68-0.73-2.67-1.17c-0.28-0.05-0.56-0.11-0.83-0.18V883.98H543.55z"/>
				<path class="st1107" d="M551.4,876.17v127.26c-1.21,2.07-2.3,3.08-3.5,3.4V876.17H551.4z"/>
				<path class="st1107" d="M559.24,887.07v119.1c-0.72-0.8-1.2-1.7-1.54-2.66c-0.41-1.16-0.62-2.39-0.79-3.64
					c-0.39-0.03-0.78-0.06-1.17-0.1v-112.7H559.24z"/>
				<path class="st1107" d="M567.09,892.16v127.65c-0.8-0.52-1.34-1.4-1.79-2.4c-0.64-0.51-1.21-1.07-1.71-1.66V892.16H567.09z"/>
				<path class="st1107" d="M574.93,880.9v142.02c-0.06-0.01-0.12-0.02-0.18-0.04c-1.21-0.06-2.33-0.34-3.32-0.87V880.9H574.93z"/>
				<path class="st1107" d="M582.78,877.44v146.8c-0.33-0.09-0.66-0.18-0.99-0.27c-0.83-0.01-1.68,0.1-2.51,0.11V877.44H582.78z"/>
				<path class="st1107" d="M590.62,870.54v156.49c-0.21-0.05-0.41-0.15-0.6-0.3c-0.97-0.35-1.93-0.7-2.9-1.05V870.54H590.62z"/>
				<path class="st1107" d="M598.47,873.99v154.99c-0.81,0.54-1.66,0.87-2.56,0.87c-0.31,0-0.62-0.04-0.94-0.12V873.99H598.47z"/>
				<path class="st1107" d="M606.31,894.88v125.65c-0.97,1.65-2.1,3.2-3.5,4.58V894.88H606.31z"/>
				<path class="st1107" d="M614.15,889.61v116.8c-1.81,1.54-2.14,4.19-3.5,6.09V889.61H614.15z"/>
				<path class="st1107" d="M622,890.79v112.74c-1.15-0.52-2.27-0.04-3.38,0.47c-0.04,0.02-0.08,0.04-0.12,0.06V890.79H622z"/>
				<path class="st1107" d="M629.84,903.6v103.19c-0.53,1.26-1.19,2.12-2.04,2.12c-0.43,0-0.92-0.23-1.46-0.74V903.6H629.84z"/>
				<path class="st1107" d="M637.69,910.5v64.85c-1.55,1.01-1.32,2.98-1.44,4.73c-0.24,3.22-0.51,6.42-2.06,9.3V910.5H637.69z"/>
				<path class="st1107" d="M645.53,905.41v69.88c-1.17-0.08-2.33-0.16-3.5-0.24v-69.64H645.53z"/>
				<path class="st1107" d="M653.38,915.77v72.04c-0.96-1.97-2.12-3.82-3.5-5.56v-66.48H653.38z"/>
				<path class="st1107" d="M661.22,936.65v76.84c-0.99-2.8-1.97-5.59-2.95-8.39c-0.08-0.86-0.15-1.72-0.23-2.57
					c-0.11-0.31-0.21-0.61-0.32-0.92v-64.96H661.22z"/>
				<path class="st1107" d="M669.07,954.18v88.94c-0.43-0.99-0.87-1.99-1.26-3c-0.79-2-1.4-4.05-1.5-6.28
					c-0.07-0.83-0.14-1.66-0.22-2.49c-0.2-0.27-0.37-0.54-0.52-0.82v-76.35H669.07z"/>
				<path class="st1107" d="M676.91,958.63v91.72c-0.25-0.04-0.49-0.09-0.73-0.16c-0.69-0.21-1.33-0.56-1.81-1.26
					c-0.32-0.21-0.64-0.41-0.96-0.61v-89.69H676.91z"/>
				<path class="st1107" d="M684.76,958.63v92.82c-0.3-0.02-0.59-0.04-0.89-0.06c-0.87-0.02-1.74-0.03-2.61-0.05v-92.71H684.76z"/>
				<path class="st1107" d="M692.6,953v102.2c-0.51-0.15-1.12-0.42-1.83-0.84c-0.49-0.34-0.99-0.68-1.48-1.02
					c-0.06,0-0.13-0.01-0.19-0.03V953H692.6z"/>
				<path class="st1107" d="M700.44,938.56v100.79c-0.02,0.02-0.05,0.04-0.07,0.06c-0.44,0.96-0.87,1.92-1.31,2.88
					c0.14,0.42,0.06,0.78-0.25,1.1c-0.03,0.45-0.06,0.9-0.08,1.35c0.35,1.92-0.8,3.16-1.79,4.48V938.56H700.44z"/>
				<path class="st1107" d="M708.29,927.85v108.3c-0.35-0.16-0.73-0.39-1.14-0.68c-0.44-0.17-0.88-0.33-1.33-0.5l-0.61,0.09
					l-0.42-0.15V927.85H708.29z"/>
				<path class="st1107" d="M716.13,906.32v121.22c-0.24,0.34-0.47,0.69-0.7,1.04c-0.47,0.87-0.94,1.75-1.41,2.63
					c-0.39,0.5-0.77,1.01-1.16,1.52c0,0,0,0,0,0.01c-0.07,0.21-0.15,0.42-0.23,0.63V906.32H716.13z"/>
				<path class="st1107" d="M723.98,912.86v115.75c-0.09-0.09-0.17-0.19-0.26-0.28c-0.27-0.22-0.41-0.51-0.41-0.86v-0.04
					c-0.47-0.44-0.94-0.88-1.42-1.32c-0.44-0.53-0.88-1.05-1.32-1.58c-0.03,0-0.06,0-0.09-0.01V912.86H723.98z"/>
				<path class="st1107" d="M731.82,886.71v142.07c-0.68,0.97-1.74,1.01-2.81,1.01c-0.24,0.2-0.47,0.36-0.69,0.49V886.71H731.82z"/>
				<path class="st1107" d="M739.67,844.21v176.02c-0.38,1.19-1.33,2.04-2.41,2.82c-0.09,1.11-0.45,2.03-1.09,2.77V844.21H739.67z"
					/>
				<path class="st1107" d="M747.51,992.69c-0.5,1.98-1.23,3.9-2.03,5.82c0.01,0.29,0.01,0.57,0.01,0.86c0,2.96-0.53,5.82-1.48,8.58
					V847.48h3.5V992.69z"/>
				<path class="st1107" d="M755.36,845.12v119.27c-0.14,0.08-0.28,0.16-0.42,0.25c-0.44,0.35-0.87,0.71-1.31,1.07
					c-0.59,0.37-1.18,0.74-1.77,1.1V845.12H755.36z"/>
				<path class="st1107" d="M763.2,846.93v120.86c-0.55-1.1-1.1-2.21-1.63-3.32l-1.17-1.68c-0.23,0.02-0.47,0.03-0.7,0.04v-115.9
					H763.2z"/>
				<path class="st1107" d="M771.05,829.5v144.77c-1.1,0.99-1.95,1.38-2.65,1.38c-0.31,0-0.6-0.08-0.85-0.23V829.5H771.05z"/>
				<path class="st1107" d="M778.89,788.63v181.18c-0.24-0.07-0.48-0.15-0.72-0.22c-0.46-0.02-0.92-0.05-1.38-0.07
					c-0.47,0.07-0.93,0.13-1.4,0.2V788.63H778.89z"/>
				<path class="st1107" d="M786.73,796.44V977c-0.21-0.58-0.37-1.18-0.46-1.81c-0.43-0.95-0.86-1.9-1.29-2.85
					c-0.58-0.25-1.17-0.5-1.75-0.75V796.44H786.73z"/>
				<path class="st1107" d="M794.58,818.78v164.73c-1.38,1.44-2.32,1.98-2.99,1.98c-0.19,0-0.36-0.04-0.51-0.13V818.78H794.58z"/>
				<path class="st1107" d="M802.42,815.33v157.6c-0.83,0.75-1.66,1.49-2.48,2.23c-0.07,0.52-0.15,1.03-0.35,1.47
					c-0.15,0.3-0.36,0.58-0.67,0.79V815.33H802.42z"/>
				<path class="st1107" d="M810.27,809.15v162.98c-0.72-0.83-1.43-1.67-2.15-2.5c-0.4,0.16-0.8,0.23-1.23,0.22
					c-0.04,0.03-0.08,0.07-0.12,0.1v-160.8H810.27z"/>
				<path class="st1107" d="M818.11,853.83v125.95c-1.3,0.37-2.36,0.05-3.5-1.1V853.83H818.11z"/>
				<path class="st1107" d="M825.96,862.37v111.17c-0.82,1.05-1.78,2.02-2.88,2.91c-0.21,0.2-0.41,0.4-0.62,0.61V862.37H825.96z"/>
				<path class="st1107" d="M833.8,865.28v92.83c-1.25,1.96-2.16,4.15-3.5,6.05v-98.88H833.8z"/>
				<path class="st1107" d="M841.65,837.49v115.05c-0.78-0.3-1.55-0.6-2.33-0.9c-0.39,0.49-0.78,0.99-1.17,1.48V837.49H841.65z"/>
				<path class="st1107" d="M849.49,856.01v104.02c-1.27-1.09-2.32-2.39-3.13-3.93c-0.12-0.13-0.25-0.25-0.37-0.38v-99.71H849.49z"
					/>
				<path class="st1107" d="M857.34,863.28v104.33c-0.69-1.3-1.49-2.52-2.7-3.49c-0.27-0.23-0.53-0.45-0.8-0.68V863.28H857.34z"/>
				<path class="st1107" d="M865.18,877.08v107.79c-0.15-0.18-0.3-0.39-0.45-0.61c-1.21-1.78-2.53-3.62-3.05-5.77V877.08H865.18z"/>
				<path class="st1107" d="M873.02,865.28v117.93c-0.28-0.02-0.57-0.04-0.85-0.06l-0.63,0.23l-0.66-0.14
					c-0.35,0.22-0.73,0.36-1.14,0.43c-0.07,0.2-0.14,0.39-0.22,0.57V865.28H873.02z"/>
				<path class="st1107" d="M880.87,870.18v116.26c-1.06-0.55-2.12-1.1-3.17-1.65c-0.11-0.14-0.22-0.27-0.33-0.4V870.18H880.87z"/>
				<path class="st1107" d="M888.71,873.09v118.23c-0.51-0.34-1.01-0.67-1.52-1c-0.52-0.41-1.05-0.82-1.58-1.23
					c-0.14-0.01-0.28-0.04-0.4-0.09V873.09H888.71z"/>
				<path class="st1107" d="M896.56,856.92v145.13c-1.58-1.38-2.41-3.8-3.5-5.86V856.92H896.56z"/>
				<path class="st1107" d="M904.4,853.83v148.24c-0.28,0.05-0.56,0.13-0.84,0.23c-0.38,0.17-0.77,0.26-1.18,0.29
					c-0.53,0.19-1.02,0.32-1.48,0.41V853.83H904.4z"/>
				<path class="st1107" d="M912.25,878.9v123.57c-0.13-0.02-0.27-0.05-0.4-0.08c-1.03,0.05-2.07-0.09-3.1-0.23V878.9H912.25z"/>
				<path class="st1107" d="M920.09,889.25v115.15c-0.45-0.18-0.95-0.32-1.52-0.42c-0.41-0.03-0.78-0.17-1.11-0.41c0,0,0,0-0.01,0
					c-0.29-0.06-0.57-0.12-0.86-0.18V889.25H920.09z"/>
				<path class="st1107" d="M927.94,909.23v116.07c-1.1-3.41-2.03-6.88-2.48-10.49l0.04-0.05c-0.49-0.73-0.81-1.57-1.06-2.45V909.23
					H927.94z"/>
				<path class="st1107" d="M935.78,905.96v143.69c-0.32-1.1-0.6-2.23-0.83-3.37c-0.47-1.37-0.94-2.74-1.41-4.1
					c-0.37-1.45-0.8-2.89-1.26-4.31V905.96H935.78z"/>
				<path class="st1107" d="M943.63,874.72v187.15c-0.2-0.14-0.4-0.27-0.6-0.4c-1.1-0.92-2.06-1.92-2.9-3V874.72H943.63z"/>
				<path class="st1107" d="M951.47,874.72v190.46c-0.43-0.04-0.85-0.08-1.28-0.12c-0.8-0.03-1.53-0.21-2.22-0.49V874.72H951.47z"/>
				<path class="st1107" d="M959.31,883.07v182.14c-0.37,0.03-0.74,0.07-1.11,0.1c-0.7,0.47-1.39,0.64-2.09,0.64
					c-0.1,0-0.2,0-0.3-0.01V883.07H959.31z"/>
				<path class="st1107" d="M967.16,866.55v199.85c-0.38-0.18-0.71-0.47-0.98-0.93c-0.84-0.06-1.68-0.13-2.52-0.19V866.55H967.16z"
					/>
				<path class="st1107" d="M975,874.72v193.27c-0.13,0.01-0.26,0.01-0.39,0.02c-1.04,0.02-2.11,0.15-3.11-0.02V874.72H975z"/>
				<path class="st1107" d="M982.85,864.37v199.4l-0.1,0.13c-0.46,0.89-0.94,1.77-1.57,2.49c-0.49,0.56-1.08,1.01-1.83,1.28v-203.3
					H982.85z"/>
				<path class="st1107" d="M990.69,838.94v215.29c-0.34-0.01-0.67-0.02-1.01-0.02c-0.45,0.08-0.91,0.17-1.37,0.26
					c-0.37,0.42-0.75,0.85-1.12,1.28V838.94H990.69z"/>
				<path class="st1107" d="M998.54,834.4v220.2c-0.26,0-0.5-0.09-0.71-0.28c-0.93-0.01-1.86-0.02-2.79-0.03V834.4H998.54z"/>
				<path class="st1107" d="M1006.38,853.83v207.08c-0.18-0.28-0.36-0.57-0.54-0.86c-0.43-0.46-0.86-0.92-1.29-1.37
					c0-0.01,0-0.01,0-0.01c-0.56-0.3-1.12-0.61-1.67-0.93V853.83H1006.38z"/>
				<path class="st1107" d="M1014.23,853.83v214.11c-0.01,0-0.01,0-0.02,0c-0.45-0.05-0.89-0.1-1.34-0.14
					c-0.95-0.19-1.64-0.66-2.14-1.33V853.83H1014.23z"/>
				<path class="st1107" d="M1022.07,865.09v203.03l-0.41,0.01l-0.62-0.15c-0.46-0.01-0.92-0.03-1.38-0.05h-1.09V865.09H1022.07z"/>
				<path class="st1107" d="M1029.92,871.27v199.27c-0.7-0.15-1.39-0.53-2.06-1.17c-0.46-0.01-0.92-0.03-1.38-0.04
					c-0.02,0-0.04,0.01-0.06,0.01V871.27H1029.92z"/>
				<path class="st1107" d="M1037.76,909.96v159.46c-0.58-0.1-1.17-0.2-1.75-0.31c0,0,0,0,0,0.01c-0.48,0.02-0.95,0.04-1.43,0.07
					c-0.1,0.06-0.21,0.11-0.32,0.16V909.96H1037.76z"/>
				<path class="st1107" d="M1045.6,912.77v159.99c-1.17-0.5-2.33-1.01-3.5-1.51V912.77H1045.6z"/>
				<path class="st1107" d="M1053.45,925.58v152.28c-1.17-0.74-2.34-1.48-3.5-2.23V925.58H1053.45z"/>
				<path class="st1107" d="M1061.29,925.58v161.04c-1.24-0.69-2.34-1.91-3.28-3.73c-0.07-0.11-0.14-0.23-0.22-0.34V925.58H1061.29z
					"/>
				<path class="st1107" d="M1069.14,920.67v165.14c-0.06,0-0.12,0-0.18,0.01c-1.16,0.65-2.27,1.1-3.32,1.32V920.67H1069.14z"/>
				<path class="st1107" d="M1076.98,918.04v166.12h-0.05c-0.46,0.04-0.91,0.09-1.36,0.13c-0.42,0.17-0.85,0.33-1.27,0.5
					c-0.26,0.27-0.53,0.47-0.82,0.62V918.04H1076.98z"/>
				<path class="st1107" d="M1084.83,898.69v184.17c-0.32,0.12-0.65,0.22-0.99,0.27c-0.79,0.7-1.64,1.02-2.51,1.14V898.69H1084.83z"
					/>
				<path class="st1107" d="M1092.67,927.39v156.88c-1.22-0.02-2.41-0.24-3.5-1.13V927.39H1092.67z"/>
				<path class="st1107" d="M1100.52,903.42v180.73c-0.15-0.01-0.3-0.01-0.45-0.02c-0.86-0.01-1.71-0.03-2.57-0.04l-0.48,0.14
					V903.42H1100.52z"/>
				<path class="st1107" d="M1108.36,901.78v185.16c-0.57-0.15-1.09-0.43-1.56-0.93c-0.64-0.35-1.29-0.69-1.94-1.05V901.78H1108.36z
					"/>
				<path class="st1107" d="M1116.21,903.42v187.62c-0.46-0.19-0.86-0.49-1.16-1.02c-0.5-0.41-1.01-0.83-1.52-1.24
					c-0.31-0.02-0.59-0.11-0.82-0.31V903.42H1116.21z"/>
				<path class="st1107" d="M1124.05,898.69v196.7c-0.79-0.15-1.52-0.49-2.06-1.31c-0.48-0.39-0.97-0.77-1.44-1.16V898.69H1124.05z"
					/>
				<path class="st1107" d="M1131.89,944.87v153.11c-1.05-0.11-2.13-0.44-3.24-1.06c-0.09-0.04-0.17-0.09-0.26-0.13V944.87H1131.89z
					"/>
				<path class="st1107" d="M1139.74,947.19v148.26c-1.15,0.73-2.31,1.38-3.5,1.85V947.19H1139.74z"/>
				<path class="st1107" d="M1147.58,946.19v145.97c-0.51,0.23-1.06,0.35-1.65,0.35c-0.22,0-0.44-0.01-0.67-0.05
					c-0.4,0.11-0.79,0.21-1.18,0.33v-146.6H1147.58z"/>
				<path class="st1107" d="M1155.43,1080.06c-0.23,0.54-0.46,1.08-0.69,1.62c0.04,0.18,0.07,0.35,0.07,0.52
					c0,0.26-0.05,0.52-0.15,0.77c-0.73,1.96-1.53,3.88-2.73,5.57V947.19h3.5V1080.06z"/>
				<path class="st1107" d="M1163.27,940.83v130.04c-0.84,0.02-1.7-0.06-2.55-0.06c-0.32,0-0.64,0.01-0.95,0.05V940.83H1163.27z"/>
				<path class="st1107" d="M1171.12,913.59v152.5c-0.56,1.66-2.03,2.31-3.5,2.97V913.59H1171.12z"/>
				<path class="st1107" d="M1178.96,900.69v160.36c-0.75,0.18-1.54,0.15-2.33,0.15c-0.39,0-0.79,0.01-1.17,0.05V900.69H1178.96z"/>
				<path class="st1107" d="M1186.81,907.23v153.71c-0.34-0.17-0.63-0.44-0.85-0.88c-0.88-0.11-1.76-0.23-2.65-0.34V907.23H1186.81z
					"/>
				<polygon class="st1107" points="1194.65,889.43 1194.65,1063.79 1191.15,1062.32 1191.15,889.43 				"/>
				<path class="st1107" d="M1202.5,848.38v215.7c-1.13,0.69-2.28,1.11-3.5,1.13V848.38H1202.5z"/>
				<path class="st1107" d="M1210.34,835.31v220.96c-0.79,1.63-1.89,3.1-3.5,4.29V835.31H1210.34z"/>
				<path class="st1107" d="M1218.18,833.49v204.43c-1.47,0.43-2.22,1.84-3.25,2.88c-0.06,0.37-0.14,0.73-0.25,1.09v-208.4H1218.18z
					"/>
				<path class="st1107" d="M1226.03,848.38v191.15c-0.91-1.05-2.02-1.78-3.5-1.83V848.38H1226.03z"/>
				<path class="st1107" d="M1233.87,866v183.47c-1.31-1.22-2.61-2.45-3.5-3.99V866H1233.87z"/>
				<path class="st1107" d="M1241.72,872.18v184.49c-1.16-1.07-2.33-2.15-3.5-3.23V872.18H1241.72z"/>
				<path class="st1107" d="M1249.56,890.79v173.98c-1.47-0.68-2.43-2.1-3.47-3.39c-0.01-0.01-0.02-0.03-0.03-0.04V890.79H1249.56z"
					/>
				<path class="st1107" d="M1257.41,884.16v181.17c-0.56-0.03-1.14-0.11-1.71-0.16h-1.79V884.16H1257.41z"/>
				<path class="st1107" d="M1265.25,875.45v186.46c-0.49,0.15-0.97,0.3-1.46,0.44c-0.67,0.43-1.36,0.87-2.04,1.31V875.45H1265.25z"
					/>
				<path class="st1107" d="M1273.1,878.72v181.45c-0.33-0.14-0.67-0.28-1-0.41c-0.84,0.27-1.67,0.54-2.5,0.81V878.72H1273.1z"/>
				<path class="st1107" d="M1280.94,870.91v192.22c-0.22-0.2-0.42-0.44-0.6-0.75c-0.9-0.06-1.79-0.12-2.69-0.19
					c-0.07-0.04-0.14-0.07-0.21-0.11V870.91H1280.94z"/>
				<path class="st1107" d="M1288.79,863.82v200.05c-0.12-0.03-0.24-0.06-0.36-0.08c-1.04,0.02-2.09,0.05-3.14,0.08V863.82H1288.79z
					"/>
				<path class="st1107" d="M1296.63,884.16v180.71c-0.71,0.29-1.4,0.39-2.07,0.39c-0.49,0-0.96-0.06-1.43-0.15V884.16H1296.63z"/>
				<path class="st1107" d="M1304.47,892.52v176.92c-0.39-0.33-0.74-0.76-1.05-1.24c-0.82-0.7-1.63-1.39-2.45-2.09V892.52H1304.47z"
					/>
				<path class="st1107" d="M1312.32,895.06v180.08c-0.71-0.44-1.35-1-1.91-1.72c-0.46-0.5-0.92-1-1.38-1.5l-0.21-0.18V895.06
					H1312.32z"/>
				<path class="st1107" d="M1320.16,895.06v189.12c-0.64-0.74-1.17-1.58-1.59-2.55c-0.48-0.87-0.95-1.74-1.43-2.61
					c-0.16-0.27-0.32-0.54-0.48-0.81V895.06H1320.16z"/>
				<path class="st1107" d="M1328.01,907.05v183.09c-0.01-0.01-0.03-0.03-0.04-0.04c-1.44-0.35-2.6-1.07-3.46-2.19V907.05H1328.01z"
					/>
				<path class="st1107" d="M1335.85,912.68v177.56c-1.16,0.91-2.32,1.49-3.5,1.61V912.68H1335.85z"/>
				<path class="st1107" d="M1343.7,1082.32c-0.2,0.23-0.4,0.47-0.59,0.7c0.1,0.2,0.15,0.39,0.15,0.57c0,0.25-0.09,0.49-0.27,0.72
					c-0.5,1.16-1.18,2.1-2.04,2.83c-0.24,0.2-0.49,0.38-0.75,0.54V911.05h3.5V1082.32z"/>
				<path class="st1107" d="M1351.54,889.79v183.77c-0.18,0.32-0.36,0.63-0.54,0.95c-0.78,1.46-1.79,2.73-2.96,3.84V889.79H1351.54z
					"/>
				<path class="st1107" d="M1359.39,865.82v204.6c-0.5-0.15-0.98-0.4-1.44-0.77c-0.46-0.21-0.87-0.3-1.24-0.3
					c-0.29,0-0.56,0.05-0.82,0.15V865.82H1359.39z"/>
				<path class="st1107" d="M1367.23,824.23v248.01c-0.32-0.09-0.61-0.21-0.9-0.39c-0.49-0.32-0.99-0.65-1.49-0.98
					c-0.36-0.08-0.74-0.13-1.11-0.15V824.23H1367.23z"/>
				<path class="st1107" d="M1375.08,848.75v223.12c-1.08,1.09-2.24,1.66-3.5,1.74V848.75H1375.08z"/>
				<path class="st1107" d="M1382.92,827.5v237.68c-0.57,0.71-1.27,1.29-2.01,1.82c-0.49,0.35-0.99,0.68-1.49,1.03V827.5H1382.92z"
					/>
				<path class="st1107" d="M1390.76,816.6v244.48c-0.47-0.34-0.95-0.68-1.42-1.01c0,0,0,0-0.01,0c-0.69,0-1.38,0-2.07-0.01V816.6
					H1390.76z"/>
				<path class="st1107" d="M1398.61,837.85v228.68c-0.34-0.38-0.68-0.76-1.02-1.14c-0.82-0.56-1.65-1.12-2.48-1.68V837.85H1398.61z
					"/>
				<path class="st1107" d="M1406.45,856.92v215.28c-0.17-0.05-0.33-0.13-0.49-0.23c-1.18,0.02-2.16-0.28-3.01-0.79V856.92H1406.45z
					"/>
				<path class="st1107" d="M1414.3,849.84v223.61c-0.05-0.04-0.09-0.07-0.14-0.11c-1.04-0.59-2.21-0.41-3.36-0.27V849.84H1414.3z"
					/>
				<path class="st1107" d="M1422.14,840.76v237.14c-0.03-0.04-0.05-0.08-0.07-0.12c-1.16-0.32-2.35-0.59-3.43-1.1V840.76H1422.14z"
					/>
				<path class="st1107" d="M1429.99,811.7v268.63c-1.2,0.07-2.38,0.08-3.5-0.33V811.7H1429.99z"/>
				<path class="st1107" d="M1437.83,771.19v309.03c-1.14-0.08-2.27-0.17-3.39-0.17c-0.04,0-0.07,0.01-0.11,0.01V771.19H1437.83z"/>
				<path class="st1107" d="M1445.68,752.94v326.49c-1.13,0.53-2.3,0.78-3.5,0.88V752.94H1445.68z"/>
				<path class="st1107" d="M1453.52,777.19v297.73c-0.79,0.56-1.7,0.91-2.73,1.07c-0.26,0.17-0.51,0.33-0.77,0.5v-299.3H1453.52z"
					/>
				<path class="st1107" d="M1461.37,764.93v306.14c-0.8,0.25-1.59,0.51-2.39,0.77c-0.36,0.33-0.73,0.65-1.11,0.92V764.93H1461.37z"
					/>
				<path class="st1107" d="M1469.21,743.95v324.52c-0.68,0.22-1.36,0.44-2.04,0.66c-0.33,0.21-0.69,0.34-1.07,0.41
					c-0.13,0.04-0.26,0.08-0.39,0.13V743.95H1469.21z"/>
				<path class="st1107" d="M1477.05,728.42v337.43c-0.57,0.17-1.14,0.35-1.71,0.52c-0.62,0.31-1.18,0.82-1.79,1.16V728.42H1477.05z
					"/>
				<path class="st1107" d="M1484.9,734.14v329.22c-0.79,0.28-1.59,0.55-2.38,0.82c-0.37,0.11-0.75,0.23-1.12,0.34V734.14H1484.9z"
					/>
				<path class="st1107" d="M1492.74,747.76v312.92c-0.33,0.09-0.67,0.18-1,0.27c-0.33,0.2-0.68,0.34-1.06,0.42
					c-0.48,0.17-0.96,0.33-1.44,0.5V747.76H1492.74z"/>
				<path class="st1107" d="M1500.59,701.45v358.18c-0.2,0.02-0.39,0.03-0.59,0.05c-0.44,0.02-0.89,0.03-1.33,0.04
					c-0.53,0.02-1.05,0.04-1.58,0.06V701.45H1500.59z"/>
				<path class="st1107" d="M1508.43,686.74v370.23l-0.21,0.03c-0.34,0.23-0.71,0.34-1.12,0.34h-0.15c-0.51,0.8-1.22,1.06-2.02,1.09
					V686.74H1508.43z"/>
				<path class="st1107" d="M1516.28,626.53v433.19c-1.44-0.11-2.59-0.69-3.5-1.67V626.53H1516.28z"/>
				<path class="st1107" d="M1524.12,653.23v408.95c-1,0.03-2.16-0.17-3.5-0.64V653.23H1524.12z"/>
				<path class="st1107" d="M1531.97,666.03v388.15c-0.17,0.04-0.36,0.05-0.59,0.01c-0.34,0.22-0.72,0.37-1.12,0.46
					c-0.37,2.02-0.93,3.78-1.79,5.08v-393.7H1531.97z"/>
				<path class="st1107" d="M1539.81,688.1v360.79l-0.2-0.01c-0.84,0.37-1.69,0.73-2.54,1.1c-0.25,0.13-0.5,0.26-0.76,0.4V688.1
					H1539.81z"/>
				<path class="st1107" d="M1547.66,696.55v349.65c-0.86,0.01-1.72,0.03-2.58,0.04c-0.3,0.29-0.61,0.59-0.92,0.88V696.55H1547.66z"
					/>
				<path class="st1107" d="M1555.5,705.26v342.11c-0.89-0.14-1.71-0.53-2.44-1.19c-0.35-0.03-0.71-0.05-1.06-0.07V705.26H1555.5z"
					/>
				<path class="st1107" d="M1563.34,693.28v350.39c-0.1,0.03-0.2,0.07-0.31,0.1c-0.3,1.65-1.08,2.52-2.12,3
					c-0.33,0.15-0.69,0.26-1.07,0.34V693.28H1563.34z"/>
				<path class="st1107" d="M1571.19,667.12v375.67c-0.16-0.14-0.31-0.3-0.45-0.5c-0.38,0.03-0.72-0.08-1.01-0.31
					c-0.68-0.24-1.36-0.47-2.04-0.71V667.12H1571.19z"/>
				<path class="st1107" d="M1579.03,654.32v388.82c-0.23,0.06-0.47,0.08-0.73,0.08c-0.1,0-0.21,0-0.32-0.01l-1.47,0.36
					c-0.34,0.43-0.67,0.58-0.98,0.59V654.32H1579.03z"/>
				<path class="st1107" d="M1586.88,631.71v408.26c-0.41,0.34-0.87,0.51-1.35,0.61c-0.69,0.13-1.42,0.11-2.15,0.13v-409H1586.88z"
					/>
				<path class="st1107" d="M1594.72,603.92v433.91l-0.35-0.06c-0.87-0.04-1.72-0.07-2.59-0.11c-0.1,0-0.21-0.01-0.31-0.01
					c-0.08,0.01-0.17,0.03-0.25,0.04V603.92H1594.72z"/>
				<path class="st1107" d="M1599.67,558.15c-0.04,246.44-0.08,465.99-0.1,479.82c-0.17-0.03-0.33-0.05-0.5-0.07V558.15H1599.67z"/>
			</g>
		</g>
	</g>
</g>
</svg>
