<?xml version="1.0" encoding="utf-8"?>
<!-- Generator: Adobe Illustrator 25.2.1, SVG Export Plug-In . SVG Version: 6.00 Build 0)  -->
<svg version="1.1" id="圖層_1" xmlns="http://www.w3.org/2000/svg" xmlns:xlink="http://www.w3.org/1999/xlink" x="0px" y="0px"
	 viewBox="0 0 50 50" style="enable-background:new 0 0 50 50;" xml:space="preserve">
<style type="text/css">
	.st0{fill:#743079;}
	.st1{fill:#CA0813;}
	.st2{fill:#198420;}
	.st3{fill:#E67820;}
	.st4{fill:#0386F4;}
</style>
<g>
	<path class="st1" d="M2.42,39.82c0.13-0.52,0.23-1.05,0.39-1.57c0.4-1.29,1.14-2.37,2.09-3.32c2.51-2.5,5.01-5.01,7.51-7.52
		c0.19-0.19,0.35-0.44,0.44-0.69c2.79-7.45,5.57-14.9,8.36-22.35c0.06-0.16,0.11-0.34,0.2-0.49c0.27-0.51,0.85-0.64,1.31-0.3
		c0.13,0.09,0.24,0.22,0.36,0.33c2.46,2.46,4.93,4.93,7.39,7.39c0.11,0.11,0.19,0.26,0.3,0.41c1.59-1.1,3.25-1.48,5.05-1.07
		c1.3,0.29,2.38,0.97,3.25,1.99c1.65,1.93,2.03,4.97,0.17,7.62c0.13,0.08,0.31,0.14,0.43,0.26c2.48,2.47,4.95,4.94,7.42,7.42
		c0.18,0.18,0.36,0.4,0.45,0.64c0.17,0.46-0.11,0.88-0.69,1.1c-1.96,0.74-3.93,1.47-5.89,2.21c-1.42,0.53-2.83,1.06-4.25,1.58
		c-0.22,0.08-0.45,0.15-0.68,0.14c-0.39-0.01-0.71-0.34-0.77-0.73c-0.06-0.39,0.14-0.77,0.56-0.95c0.65-0.27,1.32-0.5,1.97-0.75
		c0.16-0.06,0.32-0.13,0.46-0.18c-6.09-6.09-12.17-12.17-18.26-18.26c-0.4,1.06-0.81,2.14-1.21,3.22
		c-1.38,3.68-2.75,7.37-4.13,11.05c-0.11,0.29-0.08,0.46,0.14,0.68c2.85,2.83,5.68,5.67,8.51,8.51c0.22,0.22,0.39,0.27,0.68,0.15
		c1.16-0.46,2.33-0.88,3.5-1.32c0.11-0.04,0.22-0.09,0.33-0.12c0.5-0.13,0.95,0.09,1.11,0.54c0.15,0.42-0.03,0.89-0.49,1.09
		c-0.54,0.24-1.09,0.42-1.64,0.63c-0.58,0.22-1.17,0.44-1.8,0.68c0.15,0.16,0.25,0.27,0.36,0.38c2.3,2.3,4.6,4.59,6.88,6.9
		c0.21,0.21,0.38,0.53,0.43,0.82c0.06,0.41-0.27,0.72-0.79,0.85c-2.02,0.53-4.03,1.04-6.05,1.57c-0.18,0.05-0.36,0.12-0.54,0.17
		c-0.15,0-0.29,0-0.44,0c-0.23-0.17-0.49-0.33-0.69-0.53c-1.57-1.55-3.12-3.11-4.68-4.67c-0.11-0.11-0.23-0.21-0.36-0.33
		c-1.05,1.05-2.07,2.06-3.08,3.08c-0.94,0.94-2.02,1.66-3.29,2.06c-0.51,0.16-1.04,0.26-1.57,0.39c-0.56,0-1.12,0-1.68,0
		c-0.1-0.03-0.19-0.07-0.29-0.09c-3.04-0.52-5.14-2.21-6.27-5.07c-0.24-0.6-0.34-1.26-0.5-1.9C2.42,40.94,2.42,40.38,2.42,39.82z
		 M13.55,28.99c-2.67,2.61-5.43,5.13-7.96,7.86c-2.17,2.34-1.79,6.17,0.57,8.31c2.5,2.27,6.11,2.17,8.57-0.27
		c2.39-2.37,4.76-4.75,7.14-7.13c0.08-0.08,0.15-0.17,0.21-0.25C19.2,34.64,16.34,31.78,13.55,28.99z M22.53,5.97
		c-0.01,0.02-0.05,0.06-0.07,0.11c-0.57,1.51-1.13,3.02-1.68,4.54c-0.04,0.12,0.03,0.34,0.13,0.43c6.33,6.34,12.67,12.68,19,19.02
		c0.17,0.17,0.31,0.2,0.53,0.11c1.22-0.47,2.44-0.92,3.66-1.38c0.31-0.12,0.62-0.24,0.91-0.35C37.51,20.95,30.02,13.47,22.53,5.97z
		 M20.39,41.82c1.58,1.57,3.15,3.15,4.74,4.71c0.09,0.09,0.32,0.1,0.47,0.07c0.87-0.21,1.73-0.44,2.6-0.67
		c0.6-0.16,1.2-0.31,1.8-0.47c-2.25-2.24-4.45-4.45-6.64-6.63C22.4,39.8,21.42,40.79,20.39,41.82z M38.03,18.8
		c1.12-1.39,0.83-3.95-0.59-5.33c-1.58-1.53-4.01-1.52-5.26-0.52C34.13,14.89,36.08,16.85,38.03,18.8z"/>
	<path class="st1" d="M42.53,9.48c-0.81-0.01-1.23-0.69-0.93-1.26c0.07-0.14,0.18-0.27,0.3-0.38c0.93-0.94,1.86-1.87,2.8-2.8
		c0.11-0.11,0.24-0.22,0.38-0.3c0.37-0.19,0.72-0.12,1.01,0.17c0.28,0.29,0.35,0.64,0.14,1.01c-0.08,0.14-0.19,0.26-0.3,0.38
		c-0.92,0.93-1.84,1.86-2.77,2.77C42.95,9.27,42.66,9.4,42.53,9.48z"/>
	<path class="st1" d="M45.59,13.38c-0.38,0-0.77,0.02-1.15-0.01c-0.47-0.03-0.8-0.38-0.82-0.82c-0.02-0.43,0.28-0.85,0.75-0.88
		c0.82-0.04,1.64-0.04,2.46,0c0.46,0.03,0.77,0.46,0.74,0.89c-0.03,0.45-0.36,0.78-0.84,0.81C46.35,13.4,45.97,13.38,45.59,13.38
		C45.59,13.38,45.59,13.38,45.59,13.38z"/>
	<path class="st1" d="M37.52,5.34c0-0.37-0.02-0.73,0-1.1c0.03-0.47,0.37-0.8,0.81-0.84c0.43-0.03,0.86,0.27,0.89,0.74
		c0.05,0.8,0.05,1.61,0,2.41c-0.03,0.47-0.45,0.75-0.89,0.72c-0.45-0.03-0.78-0.35-0.8-0.84C37.5,6.08,37.51,5.71,37.52,5.34z"/>
	<path class="st1" d="M33.37,34.01c-0.01,0.46-0.42,0.87-0.88,0.86c-0.46-0.01-0.87-0.42-0.86-0.88c0.01-0.46,0.43-0.87,0.88-0.87
		C32.97,33.13,33.38,33.55,33.37,34.01z"/>
	<path class="st1" d="M10.28,44.7c-0.95-0.01-1.82-0.31-2.57-0.94c-0.56-0.48-0.68-0.96-0.31-1.4c0.36-0.44,0.85-0.43,1.43,0.04
		c0.67,0.55,1.43,0.69,2.23,0.4c0.36-0.13,0.69-0.39,0.97-0.65c0.62-0.58,1.21-1.2,1.82-1.8c0.31-0.3,0.68-0.42,1.08-0.21
		c0.34,0.18,0.52,0.48,0.45,0.87c-0.03,0.18-0.11,0.38-0.24,0.5c-0.76,0.77-1.53,1.55-2.33,2.28C12.11,44.43,11.24,44.69,10.28,44.7
		z"/>
	<path class="st1" d="M18.1,38.26c-0.03,0.47-0.46,0.86-0.92,0.83c-0.47-0.03-0.85-0.45-0.82-0.92c0.02-0.48,0.44-0.85,0.91-0.82
		C17.73,37.37,18.13,37.8,18.1,38.26z"/>
</g>
</svg>
