<?xml version="1.0" encoding="utf-8"?>
<!-- Generator: Adobe Illustrator 25.2.1, SVG Export Plug-In . SVG Version: 6.00 Build 0)  -->
<svg version="1.1" id="圖層_1" xmlns="http://www.w3.org/2000/svg" xmlns:xlink="http://www.w3.org/1999/xlink" x="0px" y="0px"
	 viewBox="0 0 50 50" style="enable-background:new 0 0 50 50;" xml:space="preserve">
<style type="text/css">
	.st0{fill:#743079;}
	.st1{fill:#CA0813;}
	.st2{fill:#198420;}
	.st3{fill:#E67820;}
	.st4{fill:#0386F4;}
</style>
<g>
	<path class="st4" d="M42.2,12.06H7.75c-0.45,0-0.81-0.36-0.81-0.81v0c0-0.45,0.36-0.81,0.81-0.81H42.2c0.45,0,0.81,0.36,0.81,0.81
		v0C43.01,11.7,42.65,12.06,42.2,12.06z"/>
	<path class="st4" d="M23.38,37.92V7.16c0-0.88,0.72-1.6,1.6-1.6h0c0.88,0,1.6,0.72,1.6,1.6v30.76c0,0.88-0.72,1.6-1.6,1.6h0
		C24.09,39.52,23.38,38.8,23.38,37.92z"/>
	<path class="st4" d="M13.63,38.12h22.69c0.59,0,1.07,0.48,1.07,1.07v2.45c0,0.59-0.48,1.07-1.07,1.07H13.63
		c-0.59,0-1.07-0.48-1.07-1.07v-2.45C12.56,38.6,13.04,38.12,13.63,38.12z"/>
	<circle class="st4" cx="24.98" cy="11.25" r="3.66"/>
	<g>
		<path class="st4" d="M15.78,29.55H3.89c-0.33,0-0.64-0.16-0.83-0.43c-0.19-0.27-0.24-0.61-0.13-0.92l5.94-16.8
			c0.14-0.41,0.53-0.68,0.96-0.68c0.43,0,0.81,0.27,0.96,0.68l5.94,16.8c0.11,0.31,0.06,0.65-0.13,0.92
			C16.41,29.39,16.11,29.55,15.78,29.55z M5.32,27.52h9.02L9.83,14.77L5.32,27.52z"/>
	</g>
	<g>
		<path class="st4" d="M2.18,27.36c-0.46,0-0.77,0.46-0.61,0.88c1.27,3.33,4.49,5.69,8.26,5.69c3.77,0,6.99-2.36,8.26-5.69
			c0.16-0.43-0.15-0.88-0.61-0.88H2.18z"/>
	</g>
	<g>
		<path class="st4" d="M46.11,29.55H34.22c-0.33,0-0.64-0.16-0.83-0.43c-0.19-0.27-0.24-0.61-0.13-0.92l5.94-16.8
			c0.14-0.41,0.53-0.68,0.96-0.68s0.81,0.27,0.96,0.68l5.94,16.8c0.11,0.31,0.06,0.65-0.13,0.92
			C46.75,29.39,46.44,29.55,46.11,29.55z M35.66,27.52h9.02l-4.51-12.74L35.66,27.52z"/>
	</g>
	<g>
		<path class="st4" d="M32.52,27.36c-0.46,0-0.77,0.46-0.61,0.88c1.27,3.33,4.49,5.69,8.26,5.69c3.77,0,6.99-2.36,8.26-5.69
			c0.16-0.43-0.15-0.88-0.61-0.88H32.52z"/>
	</g>
</g>
</svg>
